<svg width="412" height="354" viewBox="0 0 412 354" fill="none" xmlns="http://www.w3.org/2000/svg">
<path d="M103.356 326.117C87.0501 316.061 71.8418 304.077 56.8374 292.109C36.9098 276.21 16.2924 259.072 7.0577 235.325C-11.6312 187.281 8.98617 99.6367 43.2126 62.2136C65.4449 37.9019 111.65 21.0467 142.584 10.849C178.833 -1.10322 218.343 -3.40594 255.611 5.06869C314.986 18.5874 367.588 59.253 395.574 113.296C405.342 132.172 412.303 152.991 411.99 174.232C411.582 201.943 398.882 228.119 383.078 250.896C355.359 290.841 316.585 323.737 271.086 340.968C225.587 358.199 173.33 358.966 128.74 339.527C119.944 335.689 111.524 331.146 103.372 326.102L103.356 326.117Z" fill="#FF82BA"/>
</svg>
