<svg width="353" height="327" viewBox="0 0 353 327" fill="none" xmlns="http://www.w3.org/2000/svg">
<path d="M344.162 114.656C341.961 109.519 339.35 104.255 336.288 98.8074C318.918 67.8576 287.424 47.0127 254.321 34.2122C221.217 21.4117 185.913 15.5972 151.385 7.36933C136.696 3.86931 121.922 -0.110556 106.824 0.00234808C75.2443 0.242269 45.5841 19.0549 27.3957 44.8816C9.20724 70.7084 1.46057 102.731 0.176512 134.302C-0.966437 162.626 3.22441 192.264 19.1269 215.733C27.6356 228.294 39.0791 238.512 50.3957 248.603C68.048 264.325 85.6861 280.032 103.338 295.754C112.863 304.236 122.529 312.817 133.902 318.575C171.238 337.486 227.962 322.216 257.397 295.994C264.452 289.714 271.888 283.927 279.48 278.31C294.056 267.514 309.041 256.873 320.682 242.802C330.602 230.82 338.236 217.145 343.471 202.495C355.38 169.147 356.706 144.011 344.148 114.685L344.162 114.656Z" fill="#FF8D7C"/>
</svg>
