<svg width="447" height="372" viewBox="0 0 447 372" fill="none" xmlns="http://www.w3.org/2000/svg">
<path d="M125.254 0.791894C106.454 1.06897 85.8198 -0.817704 68.6107 3.21433C55.7736 6.2214 45.755 10.6844 34.8734 15.1238C26.8409 18.4003 20.9579 20.3718 16.3846 25.5605C11.4294 31.1836 6.98841 38.0915 3.39425 44.0226C-1.59898 52.2635 1.40342 60.8257 2.90172 69.4783C3.76982 74.4898 1.85508 78.7929 7.31843 83.3892C9.02945 84.8288 12.2215 85.9188 14.0583 87.3499C15.9935 88.8581 16.5222 91.1115 18.6711 92.4886C23.2801 95.4436 33.5817 95.1985 37.3192 98.0862C41.0206 100.947 38.5161 106.069 38.2824 109.416C37.1307 125.847 31.0615 143.783 45.2157 159.579C51.1427 166.193 52.2438 174.172 54.3366 181.201C55.6454 185.598 59.1991 189.416 62.6463 193.521C65.2811 196.659 67.9611 199.764 69.0269 203.13C70.6476 208.248 67.864 207.985 66.0596 211.36C61.6226 219.658 53.2041 227.984 50.2255 236.759C47.0104 246.23 45.6177 255.445 44.9585 265.373C44.2247 276.429 42.8293 286.701 55.3638 296.932C62.7905 302.993 73.0709 307.957 80.4556 314.155C87.863 320.372 94.7847 324.015 105.727 328.632C117.86 333.75 131.492 337.598 144.969 341.577C159.68 345.919 175.576 348.133 189.76 352.981C206.181 358.594 222.352 362.051 240.369 365.696C259.173 369.5 271.314 372.281 290.608 371.527C317.815 370.464 345.559 367.891 369.031 360.991C380.72 357.553 391.169 353.02 399.187 347.311C407.656 341.28 410.132 334.196 416.494 327.649C417.959 326.143 418.555 324.653 418.55 323.234C418.722 322.83 418.887 322.424 419.051 322.017C423.355 317.242 426.84 312.028 430.077 306.354C437.322 293.648 445.44 281.548 446.293 267.944C447.456 249.388 447.654 231.786 432.627 213.845C421.864 200.994 416.27 189.006 410.029 175.505C401.724 157.543 386.591 138.154 384.393 119.726C383.939 115.923 384.988 112.627 381.761 108.969C374.677 100.933 362.195 93.4056 352.748 85.9936C330.706 68.6993 309.85 52.0306 276.628 40.3696C261.415 35.029 246.274 30.0466 232.032 23.8416C219.51 18.387 207.644 11.0412 193.167 7.19543C171.28 1.38219 148.217 0.452177 125.254 0.791894Z" fill="#FFB54E"/>
</svg>
