<svg width="460" height="345" viewBox="0 0 460 345" fill="none" xmlns="http://www.w3.org/2000/svg">
<path d="M11.8448 57.3767C14.4918 33.8617 22.5838 5.27675 45.7828 0.61073C72.8018 -4.82433 91.3997 27.0847 97.8178 53.8867C104.236 80.6897 112.58 113.669 139.363 120.17C163.84 126.111 186.228 104.518 198.977 82.7947C211.725 61.0717 222.239 35.4857 244.773 24.2338C258.325 17.4667 278.189 19.2307 284.478 33.0108C287.95 40.6188 286.281 49.4688 284.548 57.6508L256.843 188.49C284.636 202.929 317.717 200.631 349.015 199.478C380.314 198.325 414.306 199.556 438.819 219.05C463.333 238.545 469.044 282.897 442.124 298.905C434.422 303.484 425.37 305.102 416.532 306.576C329.87 321.03 120.874 373.732 42.7427 322.531C-22.9133 279.505 4.75373 120.36 11.8448 57.3767Z" fill="#5F9784"/>
</svg>
