<svg width="434" height="375" viewBox="0 0 434 375" fill="none" xmlns="http://www.w3.org/2000/svg">
<path d="M14.9326 224.602C64.2026 127.982 151.488 51.3988 253.696 15.1149C283.144 4.66091 314.479 -2.61509 345.53 0.890895C376.581 4.3959 407.426 20.0749 423.346 46.9639C439.266 73.8529 436.515 112.247 412.844 132.646C390.228 152.135 357.043 151.201 327.256 149.203C312.562 148.217 297.867 147.231 283.173 146.245C274.425 145.658 265.419 145.102 257.093 147.85C239.106 153.786 229.203 173.623 227.06 192.443C224.916 211.262 228.545 230.267 227.957 249.2C226.368 300.321 190.861 348.717 142.575 365.577C40.0227 401.385 -32.7003 318.013 14.9326 224.602Z" fill="#F89BAE"/>
</svg>
