<svg width="351" height="477" viewBox="0 0 351 477" fill="none" xmlns="http://www.w3.org/2000/svg">
<path d="M3.30669 154.063C4.49169 127.459 6.13969 100.063 17.6607 76.0542C32.5377 45.0513 62.6497 23.2923 95.1827 12.1553C127.717 1.01828 162.718 -0.586696 197.097 0.154271C225.622 0.768284 254.62 3.03525 281.21 13.3813C307.799 23.7273 331.984 43.2102 342.229 69.8393C348.428 85.9533 349.23 103.561 349.867 120.814C350.836 147.075 351.024 175.368 336.081 196.985C317.983 223.167 283.515 231.469 252.014 236.025C220.411 240.595 185.526 242.688 159.249 224.545C137.101 209.252 122.83 180.69 96.3757 175.727C89.1867 251.003 111.6 328.711 157.772 388.597C171.955 406.993 189.356 429.268 180.678 450.815C172.679 470.674 147.388 476.138 125.989 476.826C84.2697 478.168 41.9797 472.125 2.46869 458.683C-0.727309 358.635 -1.19331 255.425 3.30669 154.063Z" fill="#F4BBA6"/>
</svg>
