<svg width="507" height="340" viewBox="0 0 507 340" fill="none" xmlns="http://www.w3.org/2000/svg">
<path d="M505.091 79.1821C504.662 63.6611 503.715 47.4851 496.048 33.9831C478.677 3.38713 436.771 -0.14087 401.588 0.00412826C292.506 0.448128 183.423 0.895129 74.3412 1.33913C46.8393 1.45213 13.1322 5.48613 2.65421 30.9151C-6.80185 53.8631 10.4523 79.8421 31.6132 92.8121C98.4013 133.744 185.248 91.8741 262.685 103.691C273.939 132.251 261.498 168.127 234.978 183.588C222.048 191.126 206.468 194.246 195.27 204.176C172.677 224.208 181.829 266.678 209.253 279.309C236.678 291.942 272.043 275.773 284.718 248.369C293.892 228.533 292.823 205.474 299.61 184.702C306.397 163.928 327.58 144.025 348.005 151.796C357.61 155.452 364.164 164.254 369.838 172.822C375.766 181.777 381.403 191.103 384.427 201.407C391.643 225.999 383.152 252.109 381.658 277.693C380.164 303.277 390.805 334.317 416.025 338.875C437.207 342.702 456.347 325.429 468.05 307.364C510.427 241.947 507.15 153.687 505.091 79.1821Z" fill="#83D398"/>
</svg>
