<svg width="413" height="373" viewBox="0 0 413 373" fill="none" xmlns="http://www.w3.org/2000/svg">
<path d="M159.996 0.0992015C184.086 -1.31077 210.204 12.3972 216.772 35.6172C223.13 58.0962 211.068 84.9302 224.193 104.255C233.052 117.298 250.052 121.47 265.496 124.644C294.615 130.628 323.734 136.613 352.853 142.597C368.092 145.729 384.074 149.219 395.777 159.469C422.619 182.982 412.912 227.032 395.508 258.184C377.239 290.885 352.874 320.167 324.039 344.076C299.528 364.4 265.31 381.293 236.908 366.9C198.017 347.192 200.262 285.209 163.484 261.798C112.132 229.108 -8.25234 272.335 0.447664 164.871C5.07966 107.656 103.143 3.4302 159.996 0.0992015Z" fill="#83D398"/>
</svg>
