<svg width="354" height="427" viewBox="0 0 354 427" fill="none" xmlns="http://www.w3.org/2000/svg">
<path d="M284.377 0.195536C290.763 0.589579 297.361 1.72758 302.591 5.41557C310.006 10.6436 313.255 19.8645 316.076 28.4876C332.807 79.6266 349.67 131.435 353.121 185.13C356.573 238.825 345.202 295.501 310.878 336.936C276.234 378.757 222.981 400.16 170.676 414.767C141.221 422.992 110.549 429.633 80.2237 425.677C49.8988 421.721 19.6888 405.396 6.23079 377.935C-7.22624 350.473 1.46687 312.014 28.9017 298.502C41.6058 292.244 56.3177 291.741 70.4718 292.209C109.468 293.499 149.465 301.113 186.856 289.967C224.247 278.82 257.432 239.335 244.125 202.657C237.64 184.782 222.001 172.089 207.07 160.313C133.74 102.477 196.916 -5.20241 284.377 0.195536Z" fill="#C19280"/>
</svg>
