<svg width="9237" height="32769" viewBox="0 0 9237 32769" fill="none" xmlns="http://www.w3.org/2000/svg">
<path d="M32.595 17474.5C140.142 17330.5 330.668 17216.4 553.768 17162.3C618.047 17146.7 686.445 17135.9 754.224 17141.1C822.002 17146.3 889.331 17169.7 924.081 17209.8C958.831 17249.8 952.826 17307.1 901.157 17337.5C851.791 17366.5 779.355 17365.1 714.335 17362.2C682.261 17360.7 650.185 17359.2 618.111 17357.7C599.016 17356.9 579.357 17356 561.183 17360.1C521.921 17369 500.305 17398.6 495.627 17426.6C490.947 17454.7 498.868 17483 497.585 17511.2C494.116 17587.4 416.612 17659.5 311.213 17684.7C87.3617 17738 -71.3784 17613.8 32.595 17474.5Z" fill="#F89BAE"/>
<path d="M105.326 18614C230.393 18759.2 554.807 18814 740.406 18703C882.417 18618.1 908.211 18476.3 924.525 18347.8C830.631 18330.6 739.799 18379.3 673.888 18428.1C607.973 18476.9 536.779 18533.5 439.775 18538C370.778 18468.9 445.455 18374.8 534.506 18317.5C623.561 18260.1 735.88 18206.5 756.684 18124.1C760.016 18110.9 760.44 18096.5 750.385 18085C731.342 18063.3 686.386 18062.2 649.522 18065.1C250.447 18096.3 -152.542 18314.6 105.326 18614Z" fill="#ADDBD0"/>
<path d="M822.908 16063.7C875.492 16061.6 932.502 16082.1 946.839 16116.7C960.717 16150.2 934.388 16190.2 963.037 16219C982.375 16238.4 1019.48 16244.6 1053.19 16249.4C1116.75 16258.3 1180.32 16267.2 1243.88 16276.1C1277.14 16280.8 1312.03 16286 1337.57 16301.3C1396.16 16336.3 1374.97 16402 1336.98 16448.4C1297.11 16497.2 1243.92 16540.8 1180.98 16576.4C1127.48 16606.7 1052.79 16631.9 990.792 16610.5C905.9 16581.1 910.801 16488.7 830.521 16453.8C718.43 16405.1 455.655 16469.5 474.646 16309.3C484.756 16224.1 698.809 16068.7 822.908 16063.7Z" fill="#83D398"/>
<path d="M935.129 15575.3C933.514 15614 937.624 15660.2 986.331 15679.9C1010.06 15689.5 1039.07 15690.1 1066.65 15690.5C1264.9 15692.9 1463.15 15695.3 1661.39 15697.6C1742.99 15540.3 1732.21 15368.6 1720.42 15201.8C1719.57 15189.9 1718.42 15177.2 1708.7 15167.3C1694.02 15152.2 1664.94 15147.9 1638.76 15145.2C1456.08 15126.1 1270.86 15121.8 1086.16 15117.4C1051.06 15116.6 1013.8 15116.2 983.503 15128.3C884.394 15168.2 938.345 15498.3 935.129 15575.3Z" fill="#88C4D2"/>
<path d="M1396.02 20454.9C1363.92 20368.4 1355.33 20268 1437.38 20198.5C1447.3 20190.1 1460.34 20181.7 1476.13 20182C1498.72 20182.3 1511.8 20198.9 1521.95 20212.7C1602.95 20322.7 1805.66 20383.3 1978.96 20349.2C2111.71 20323.1 2228.41 20248.8 2365.99 20257.3C2390.53 20321.4 2336.78 20388 2268.27 20434.8C2199.76 20481.6 2115.11 20517.1 2052.31 20567.5C1958.88 20642.6 1838.06 20854.3 1638.81 20788.1C1509.95 20745.3 1427.35 20539.3 1396.02 20454.9Z" fill="#88C4D2"/>
<path d="M878.886 19142.3C837.85 19142.8 792.809 19139.9 755.245 19146C727.224 19150.4 705.355 19157.1 681.603 19163.7C664.07 19168.6 651.228 19171.5 641.245 19179.3C630.429 19187.6 620.735 19197.9 612.89 19206.8C601.991 19219.1 608.545 19231.8 611.815 19244.7C613.71 19252.2 609.53 19258.6 621.456 19265.5C625.191 19267.6 632.158 19269.2 636.168 19271.4C640.392 19273.6 641.546 19277 646.236 19279C656.297 19283.4 678.783 19283.1 686.942 19287.4C695.021 19291.6 689.554 19299.3 689.044 19304.3C686.53 19328.7 673.282 19355.5 704.178 19379C717.116 19388.9 719.519 19400.8 724.087 19411.3C726.944 19417.8 734.701 19423.5 742.226 19429.6C747.977 19434.3 753.827 19438.9 756.153 19443.9C759.691 19451.6 753.615 19451.2 749.676 19456.2C739.991 19468.6 721.615 19481 715.114 19494.1C708.096 19508.2 705.056 19521.9 703.617 19536.7C702.015 19553.2 698.969 19568.5 726.329 19583.8C742.541 19592.8 764.981 19600.2 781.1 19609.4C797.269 19618.7 812.378 19624.1 836.262 19631C862.747 19638.6 892.502 19644.4 921.919 19650.3C954.031 19656.8 988.728 19660.1 1019.69 19667.3C1055.53 19675.7 1090.83 19680.8 1130.16 19686.2C1171.2 19691.9 1197.71 19696.1 1239.82 19694.9C1299.21 19693.4 1359.77 19689.5 1411 19679.2C1436.52 19674.1 1459.33 19667.4 1476.83 19658.8C1495.32 19649.9 1500.72 19639.3 1514.61 19629.5C1517.8 19627.3 1519.11 19625.1 1519.1 19623C1519.47 19622.4 1519.83 19621.7 1520.19 19621.1C1529.58 19614 1537.19 19606.3 1544.26 19597.8C1560.07 19578.9 1577.79 19560.8 1579.65 19540.5C1582.19 19512.9 1582.62 19486.7 1549.82 19459.9C1526.33 19440.8 1514.12 19422.9 1500.49 19402.8C1482.37 19376 1449.33 19347.1 1444.54 19319.6C1443.54 19314 1445.84 19309 1438.79 19303.6C1423.33 19291.6 1396.08 19280.4 1375.46 19269.3C1327.35 19243.6 1281.82 19218.7 1209.31 19201.3C1176.1 19193.4 1143.05 19185.9 1111.96 19176.7C1084.63 19168.6 1058.73 19157.6 1027.13 19151.9C979.352 19143.2 929.011 19141.8 878.886 19142.3Z" fill="#FFB54E"/>
<path d="M2022.86 13497.9C1997 13527.6 1987.43 13562.8 1978.33 13597.1C1885.38 13947.4 1792.44 14297.8 1699.49 14648.1C1694.52 14666.8 1698.95 14694.2 1725.76 14694C1733.64 14694 1740.89 14691.1 1747.34 14687.9C1809.47 14656.9 1826.89 14597.2 1828.88 14543.4C1830.87 14489.5 1823.08 14433.3 1853.54 14383.9C1888.39 14327.5 1969.78 14286.8 1985.6 14226.2C1997.74 14179.7 1967.84 14130.8 1985.04 14085.1C2006.23 14028.8 2094.5 13989.8 2095.49 13931.5C2096.15 13892.6 2056.13 13854.2 2073.74 13817.4C2093.66 13775.8 2177.99 13759.6 2186.95 13716.1C2194.19 13680.9 2146.11 13644.9 2167.06 13612.6C2179.77 13593 2212.36 13584.9 2234.95 13570.5C2270.56 13547.7 2278.16 13506 2251.87 13477.5C2195 13416 2068.16 13445.9 2022.86 13497.9Z" fill="#83D398"/>
<path d="M1415.57 1029.41C1415.21 1029.96 1299.78 966.257 1290.32 960.048C1239.96 927.033 1203.75 878.643 1175.95 834.524C1116.97 740.908 1095.35 635.262 1117.69 533.91C1148.42 394.555 1254.71 292.52 1416.36 210.634C1570.37 132.623 1796.06 138.219 1963.59 173.408C1963.59 173.408 1416.52 1027.92 1415.57 1029.41Z" fill="#83D398"/>
<path d="M3072.87 11788.4C3080.9 11786.4 3089.45 11784.1 3094.49 11779.2C3102.4 11771.5 3098.64 11760.8 3094.41 11751.8C3057.85 11673.7 3009.61 11598.4 2950.76 11527.6C2908.76 11600.5 2878.63 11676.9 2861.16 11754.7C2793.5 11716.7 2723.18 11681.1 2650.56 11648.1C2641.5 11644 2630.17 11639.8 2620.58 11643.3C2611.16 11646.6 2609.09 11655.4 2608.16 11662.8C2600.59 11723.6 2593.02 11784.4 2585.46 11845.2C2468.2 11800.7 2330.99 11783.1 2199.23 11795.8C2261.7 11873.3 2327.13 11949.6 2395.43 12024.5C2630.11 11959.2 2836.81 11850 3072.87 11788.4Z" fill="#ADDBD0"/>
<path d="M795.153 1377.37C744.823 1465.66 801.483 1577.61 919.238 1623.21C1037 1668.8 1199.9 1642.13 1278.01 1564.7C1513.27 1331.47 946.944 1111.09 795.153 1377.37Z" fill="#FF9293"/>
<path d="M1824.23 4590.07C1681.79 4542.22 1637.12 4415.08 1622.51 4303.66C1613.8 4237.21 1610.92 4166.68 1654.95 4107.72C1677.18 4077.95 1710.11 4053.02 1742.64 4028.47C1806.38 3980.39 1875.49 3930.02 1965.96 3914.75C2040.68 3902.14 2120.06 3915.84 2189 3939.89C2206.9 3946.14 2225.34 3953.8 2234.28 3966.46C2243.63 3979.72 2240.53 3995.66 2234.66 4009.89C2224.59 4034.31 2206.97 4057.14 2183.41 4076.3C2136.04 4114.81 2065.48 4138.52 2029.12 4182.65C1971.89 4252.1 2042.64 4355.57 2154.89 4366.58C2209.31 4371.91 2263.85 4358.74 2318.78 4357.67C2536.14 4353.43 2426.27 4549.08 2312.51 4598.78C2199.16 4648.29 1935.01 4627.29 1824.23 4590.07Z" fill="#FF9293"/>
<path d="M1552.01 3271.31C1599.29 3299.26 1647.69 3334.99 1646.11 3378.66C1645.05 3407.84 1621.49 3433.87 1598.75 3458.17C1544.86 3515.74 1490.97 3573.32 1437.07 3630.9C1412.82 3656.81 1382.27 3685.42 1338.53 3687.21C1274.89 3689.81 1239.67 3636.79 1222.07 3593.28C1177.83 3483.91 1133.6 3374.53 1089.36 3265.16C1074.93 3229.5 1060.57 3191 1078.04 3155.97C1145.36 3021.34 1479.67 3228.56 1552.01 3271.31Z" fill="#ADDBD0"/>
<path d="M2241.61 12976.7C2182.09 12978.4 2120.73 12979.4 2065.06 12964.4C1993.18 12945 1939.04 12900.2 1908.13 12850.2C1877.21 12800.2 1867.08 12745 1862.29 12690.5C1858.31 12645.2 1857.93 12599 1876.01 12555.6C1894.08 12512.1 1932.97 12471.2 1990.4 12451.5C2025.15 12439.5 2064.24 12435.9 2102.58 12432.6C2160.92 12427.6 2223.94 12423.5 2274.92 12444.3C2336.66 12469.5 2361.62 12522.9 2377.68 12572.2C2393.78 12621.6 2404.98 12676.5 2369.47 12720.5C2339.54 12757.6 2278.56 12784 2272.45 12826.5C2441.56 12827.9 2610.55 12782.1 2735.36 12701C2773.71 12676.1 2820.09 12645.6 2869.74 12656.5C2915.49 12666.5 2932.41 12705.8 2937.95 12739.6C2948.76 12805.4 2943.21 12873.2 2920.66 12937.5C2698.28 12955.9 2468.35 12970.3 2241.61 12976.7Z" fill="#F4BBA6"/>
<path d="M724.495 2461.58C699.572 2397.1 676.751 2331.41 676.208 2264.54C675.663 2197.68 699.293 2128.73 758.612 2076.8C798.183 2042.17 860.21 2015.17 921.67 2024.36C958.911 2029.93 989.926 2047.74 1018.04 2065.96C1140.43 2145.28 1239.52 2245.29 1284.71 2358.5C1337 2489.49 1312.15 2742.88 1101.61 2808.26C867.177 2881.06 766.012 2568.98 724.495 2461.58Z" fill="#FFD95D"/>
<path d="M1378.51 8218.11C1343.49 8219.33 1301.19 8217.63 1281.74 8238.33C1262.86 8258.45 1279.85 8285.17 1296.88 8306.11C1324.42 8339.96 1357.76 8376.97 1411.42 8385.7C1440.47 8390.43 1470.89 8385.79 1499.32 8379.42C1709.7 8332.23 1858.09 8192.11 1923.27 8042.42C1930.5 8025.81 1936.83 8007.61 1928.03 7991.38C1928.02 7991.36 1928 7991.33 1927.99 7991.31C1916.15 7969.56 1796.57 7920.03 1763.57 7928.36C1709.85 7941.92 1718.93 7991.01 1697.82 8023.17C1637.28 8115.34 1536.48 8212.6 1378.51 8218.11Z" fill="#FF9293"/>
<path d="M2157.04 11167.8C2190.84 11173.5 2226.36 11178.6 2259.94 11172.3C2336.03 11158 2367.61 11095.1 2387.41 11041C2448.82 10873.3 2510.21 10705.7 2571.62 10538C2587.1 10495.7 2597.65 10442.3 2548.65 10415.9C2504.44 10392 2438.4 10408 2398.26 10435.2C2271.57 10521.2 2312.45 10671.5 2242.63 10785.6C2174.44 10791.3 2103.99 10757.6 2085.72 10710.6C2076.81 10687.7 2078.97 10662.5 2063.9 10641.3C2033.51 10598.5 1936.44 10595.3 1893.46 10632.3C1850.46 10669.3 1865.2 10730.1 1917.21 10760.7C1954.85 10782.9 2005.32 10790.6 2046.36 10809.4C2087.4 10828.3 2118.32 10868.9 2089.84 10897.1C2076.44 10910.4 2053.66 10916.9 2031.89 10922.1C2009.14 10927.6 1985.76 10932.4 1961.75 10932.9C1904.45 10934 1852.85 10910.4 1798.38 10897.7C1743.92 10885 1670.72 10888.7 1646.45 10925.6C1626.06 10956.6 1652.47 10993 1684.84 11018.3C1802.05 11109.9 1994.77 11140.7 2157.04 11167.8Z" fill="#83D398"/>
<path d="M2466.12 4957C2477.7 4951.03 2490.69 4945.74 2504.96 4944.97C2525.2 4943.87 2543.93 4951.87 2561.08 4959.58C2662.78 5005.27 2765.65 5051.65 2848.09 5113.91C2930.53 5176.16 2991.66 5257.07 2991.5 5342.53C2991.34 5428.78 2930.01 5508.86 2860.64 5579.66C2821.57 5619.53 2778.14 5658.7 2720.22 5684.53C2662.3 5710.36 2586.96 5720.94 2524.64 5700.93C2462.31 5680.91 2422.52 5625.03 2450.57 5580.73C2463.56 5560.21 2488.21 5544.71 2513.28 5530.97C2582.36 5493.09 2662.17 5461.96 2710.76 5410.48C2759.35 5359 2760.32 5277.08 2685.13 5245.63C2648.48 5230.31 2603.44 5230.59 2560.92 5231.27C2352.1 5234.64 2307.63 5038.87 2466.12 4957Z" fill="#C19280"/>
<path d="M1789.55 7090.24C1795.47 7052.89 1813.56 7007.48 1865.45 7000.07C1925.88 6991.44 1967.47 7042.12 1981.83 7084.69C1996.18 7127.27 2014.84 7179.65 2074.74 7189.97C2129.49 7199.41 2179.56 7165.11 2208.07 7130.61C2236.58 7096.11 2260.1 7055.47 2310.5 7037.59C2340.81 7026.85 2385.23 7029.65 2399.3 7051.54C2407.06 7063.62 2403.33 7077.68 2399.45 7090.67L2337.49 7298.49C2399.65 7321.42 2473.64 7317.77 2543.64 7315.94C2613.64 7314.11 2689.66 7316.06 2744.49 7347.03C2799.31 7377.99 2812.08 7448.44 2751.88 7473.86C2734.65 7481.14 2714.41 7483.71 2694.64 7486.05C2500.82 7509.01 2033.39 7592.71 1858.65 7511.39C1711.81 7443.05 1773.69 7190.27 1789.55 7090.24Z" fill="#5F9784"/>
<path d="M936.974 9595.28C894.927 9595.72 848.778 9592.72 810.289 9599.12C781.579 9603.9 759.172 9610.99 734.835 9618.04C716.87 9623.24 703.712 9626.37 693.484 9634.62C682.402 9643.55 672.469 9654.52 664.431 9663.94C653.263 9677.03 659.978 9690.63 663.329 9704.37C665.271 9712.33 660.988 9719.17 673.207 9726.47C677.034 9728.75 684.173 9730.49 688.281 9732.76C692.609 9735.15 693.792 9738.73 698.598 9740.92C708.906 9745.61 731.946 9745.22 740.305 9749.81C748.583 9754.36 742.982 9762.49 742.459 9767.81C739.883 9793.9 726.309 9822.39 757.966 9847.48C771.222 9857.99 773.684 9870.66 778.365 9881.82C781.292 9888.81 789.24 9894.87 796.95 9901.39C802.842 9906.38 808.836 9911.31 811.22 9916.66C814.845 9924.79 808.619 9924.37 804.584 9929.73C794.66 9942.91 775.832 9956.13 769.17 9970.07C761.98 9985.11 758.865 9999.75 757.39 10015.5C755.749 10033.1 752.628 10049.4 780.662 10065.6C797.272 10075.3 820.264 10083.2 836.781 10093C853.347 10102.9 868.828 10108.7 893.3 10116C920.437 10124.1 950.925 10130.2 981.065 10136.6C1013.97 10143.5 1049.52 10147 1081.24 10154.7C1117.97 10163.6 1154.14 10169.1 1194.43 10174.9C1236.49 10180.9 1263.64 10185.3 1306.79 10184.1C1367.64 10182.4 1429.69 10178.4 1482.19 10167.4C1508.33 10161.9 1531.7 10154.7 1549.63 10145.7C1568.57 10136.1 1574.11 10124.8 1588.34 10114.4C1591.62 10112 1592.95 10109.7 1592.94 10107.4C1593.32 10106.8 1593.69 10106.1 1594.06 10105.5C1603.68 10097.9 1611.48 10089.6 1618.72 10080.6C1634.92 10060.4 1653.08 10041.2 1654.99 10019.6C1657.59 9990.13 1658.03 9962.17 1624.42 9933.67C1600.35 9913.26 1587.84 9894.22 1573.88 9872.78C1555.3 9844.25 1521.46 9813.45 1516.54 9784.18C1515.53 9778.14 1517.88 9772.91 1510.66 9767.1C1494.82 9754.33 1466.9 9742.38 1445.77 9730.6C1396.47 9703.14 1349.83 9676.66 1275.52 9658.14C1241.5 9649.66 1207.64 9641.74 1175.78 9631.89C1147.78 9623.22 1121.24 9611.55 1088.86 9605.45C1039.91 9596.21 988.332 9594.74 936.974 9595.28Z" fill="#FFB54E"/>
<path d="M1166.01 8936.32C1178.57 8965.4 1187.59 8999.31 1163.24 9024.32C1146.97 9041.03 1119.28 9049.82 1092.99 9057.83C1030.7 9076.79 968.41 9095.75 906.123 9114.71C878.091 9123.24 844.941 9131.64 818.503 9120.85C780.034 9105.14 787.957 9064.72 801.049 9034.61C833.96 8958.92 866.87 8883.23 899.781 8807.55C910.514 8782.86 922.799 8756.55 951.77 8740.87C1063.22 8680.65 1146.81 8891.84 1166.01 8936.32Z" fill="#FFD95D"/>
<path d="M2135.37 6443.15C2141.14 6460.43 2148.76 6477.9 2164.2 6491.86C2184.3 6510.03 2215.29 6520.21 2245.85 6528.12C2324.89 6548.58 2411.01 6558.21 2493.76 6547.46C2576.51 6536.71 2655.41 6504.02 2700.05 6453.38C2744.7 6402.74 2750.24 6333.85 2704.77 6283.59C2671.62 6246.93 2616.71 6223.44 2562.42 6203.15C2485.57 6174.43 2394.53 6149.14 2314.2 6172.57C2282.38 6181.85 2255.67 6198.01 2229.55 6213.91C2110.96 6286.11 2097.45 6329.5 2135.37 6443.15Z" fill="#FFD95D"/>
<path d="M3157.04 21848.9C3128.5 21822.9 3087.6 21805.3 3047.65 21788.3C2639.57 21614.2 2231.49 21440.2 1823.41 21266.1C1801.61 21256.9 1765.75 21250.5 1756.96 21267.3C1754.38 21272.2 1755.61 21277.7 1757.47 21282.8C1775.36 21331.8 1844.36 21362.4 1911.23 21381.5C1978.1 21400.6 2051.28 21414.4 2102.91 21449.7C2161.99 21490.2 2185.59 21554.4 2256.27 21584.3C2310.5 21607.3 2381.93 21604.9 2433.45 21630.7C2496.94 21662.6 2516.19 21730.6 2588.95 21750.5C2637.48 21763.8 2699.03 21751.6 2739.28 21774.7C2784.82 21801 2776.72 21858.9 2828.3 21878.9C2870 21895.1 2931.3 21877 2964.77 21900.8C2985.09 21915.2 2984.22 21938.2 2994.74 21957.1C3011.32 21986.8 3061.12 22005.4 3105.63 21998.4C3201.93 21983.4 3207.02 21894.4 3157.04 21848.9Z" fill="#83D398"/>
<path d="M4697.73 30880.2C4697.33 30879.7 4889.64 30832.4 4906.7 30829C4997.45 30810.8 5095.1 30809.4 5179.22 30811.6C5357.71 30816.3 5516.84 30851.8 5628.97 30914.7C5783.15 31001.2 5817.19 31120.8 5772.67 31268C5730.26 31408.3 5510.54 31557.1 5306.69 31652.8C5306.69 31652.8 4698.78 30881.6 4697.73 30880.2Z" fill="#83D398"/>
<path d="M2324.34 24669.5C2327.14 24674.8 2330.2 24680.5 2336.77 24683.9C2347.07 24689.1 2361.42 24686.6 2373.52 24683.8C2478.11 24659.4 2579 24627.3 2673.93 24588.1C2576.2 24560.1 2473.86 24540 2369.59 24528.4C2420.48 24483.3 2468.17 24436.4 2512.43 24388C2517.95 24382 2523.57 24374.4 2518.94 24368C2514.4 24361.7 2502.7 24360.4 2492.69 24359.7C2411.23 24354.7 2329.76 24349.7 2248.3 24344.6C2307.98 24266.5 2331.48 24175 2314.45 24087.2C2210.63 24128.8 2108.42 24172.5 2007.97 24218C2095.44 24374.4 2241.89 24512.1 2324.34 24669.5Z" fill="#ADDBD0"/>
<path d="M7313.62 31723.6C7195.29 31690 7045.23 31727.8 6984.13 31806.3C6923.02 31884.8 6958.76 31993.3 7062.54 32045.4C7375.13 32202.2 7670.5 31824.7 7313.62 31723.6Z" fill="#FF9293"/>
<path d="M3680.41 30319.7C3744.55 30224.7 3914.94 30195 4064.27 30185.2C4153.33 30179.4 4247.86 30177.5 4326.88 30206.8C4366.79 30221.7 4400.2 30243.6 4433.1 30265.3C4497.55 30307.8 4565.05 30353.8 4585.51 30414.1C4602.41 30463.9 4584.05 30516.8 4551.82 30562.8C4543.45 30574.7 4533.18 30587 4516.21 30592.9C4498.44 30599.2 4477.08 30597.1 4458.01 30593.2C4425.28 30586.5 4394.68 30574.7 4369 30559C4317.38 30527.5 4285.61 30480.5 4226.46 30456.2C4133.38 30418.1 3994.7 30465.2 3979.95 30540C3972.79 30576.3 3990.45 30612.7 3991.89 30649.3C3997.56 30794.1 3735.34 30720.9 3668.74 30645.1C3602.37 30569.5 3630.53 30393.5 3680.41 30319.7Z" fill="#FF9293"/>
<path d="M6617.52 31787.5C6580.06 31819 6532.17 31851.3 6473.64 31850.2C6434.54 31849.5 6399.65 31833.8 6367.08 31818.7C6289.92 31782.7 6212.74 31746.8 6135.57 31710.9C6100.84 31694.7 6062.5 31674.4 6060.11 31645.2C6056.63 31602.8 6127.68 31579.3 6186 31567.6C6332.59 31538.1 6479.18 31508.7 6625.76 31479.2C6673.56 31469.6 6725.16 31460 6772.1 31471.6C6952.55 31516.5 6674.82 31739.3 6617.52 31787.5Z" fill="#ADDBD0"/>
<path d="M2471.43 23149C2469.2 23109.3 2467.81 23068.4 2487.97 23031.4C2514 22983.4 2574 22947.4 2641.02 22926.8C2708.05 22906.2 2782.01 22899.4 2855.07 22896.2C2915.69 22893.6 2977.61 22893.3 3035.86 22905.4C3094.11 22917.4 3148.89 22943.3 3175.37 22981.6C3191.39 23004.8 3196.23 23030.8 3200.66 23056.4C3207.4 23095.2 3212.85 23137.2 3185 23171.2C3151.28 23212.4 3079.64 23229 3013.63 23239.7C2947.41 23250.4 2873.78 23257.9 2814.8 23234.2C2765.09 23214.3 2729.73 23173.6 2672.72 23169.6C2670.9 23282.3 2732.3 23394.9 2840.92 23478.1C2874.29 23503.6 2915.18 23534.5 2900.61 23567.6C2887.18 23598.1 2834.51 23609.4 2789.24 23613.1C2700.98 23620.3 2610.19 23616.6 2523.98 23601.6C2499.36 23453.4 2479.96 23300.1 2471.43 23149Z" fill="#F4BBA6"/>
<path d="M8784.16 32270.7C8869.09 32290.7 8954.24 32312.5 9028.84 32347.3C9103.45 32382.1 9167.51 32431.3 9193.67 32491.3C9211.12 32531.4 9208.13 32579.8 9165.22 32608.9C9139.22 32626.6 9102.93 32634.4 9067.72 32640.4C8914.46 32666.4 8750.6 32668.7 8600.74 32634.3C8427.34 32594.5 8158.92 32447.9 8198.24 32297.3C8242.04 32129.5 8642.7 32237.3 8784.16 32270.7Z" fill="#FFD95D"/>
<path d="M1341.15 25549.2C1333.59 25571.7 1326.74 25595.4 1335.17 25617.8C1354.27 25668.5 1438.6 25689.5 1511.08 25702.7C1735.82 25743.6 1960.56 25784.6 2185.3 25825.5C2241.97 25835.8 2313.53 25842.8 2348.93 25810.2C2380.88 25780.7 2359.51 25736.7 2323.02 25709.9C2207.84 25625.5 2006.32 25652.8 1853.38 25606.2C1845.76 25560.8 1890.89 25513.8 1953.88 25501.6C1984.59 25495.7 2018.35 25497.2 2046.8 25487.1C2104.2 25466.9 2108.48 25402.2 2058.91 25373.5C2009.34 25344.9 1927.76 25354.7 1886.76 25389.3C1857.09 25414.4 1846.74 25448.1 1821.47 25475.4C1796.19 25502.8 1741.77 25523.4 1703.96 25504.4C1686.18 25495.5 1677.48 25480.3 1670.47 25465.8C1663.14 25450.6 1656.62 25435 1656 25419C1654.53 25380.8 1686.21 25346.5 1703.21 25310.2C1720.21 25273.9 1715.2 25225.1 1665.78 25208.9C1624.26 25195.3 1575.47 25212.9 1541.56 25234.5C1418.75 25312.6 1377.46 25441 1341.15 25549.2Z" fill="#83D398"/>
<path d="M3405.64 29578.9C3413.65 29586.6 3420.73 29595.2 3421.77 29604.8C3423.25 29618.2 3412.52 29630.7 3402.19 29642.2C3340.95 29709.9 3278.79 29778.5 3195.35 29833.4C3111.91 29888.4 3003.48 29929.1 2888.94 29929C2773.33 29928.9 2666 29888 2571.11 29841.8C2517.67 29815.8 2465.19 29786.8 2430.56 29748.2C2395.94 29709.6 2381.77 29659.4 2408.59 29617.9C2435.41 29576.3 2510.31 29549.8 2569.69 29568.5C2597.18 29577.2 2617.96 29593.6 2636.38 29610.3C2687.14 29656.3 2728.87 29709.5 2797.86 29741.9C2866.85 29774.3 2976.65 29774.9 3018.8 29724.8C3039.34 29700.4 3038.97 29670.4 3038.05 29642.1C3033.54 29502.9 3295.91 29473.2 3405.64 29578.9Z" fill="#C19280"/>
<path d="M1906.99 27631.5C1957.05 27635.4 2017.9 27647.5 2027.83 27682C2039.4 27722.3 1971.47 27750 1914.42 27759.6C1857.36 27769.2 1787.15 27781.6 1773.31 27821.5C1760.67 27858 1806.63 27891.4 1852.88 27910.4C1899.12 27929.4 1953.59 27945.1 1977.54 27978.7C1991.95 27998.9 1988.19 28028.5 1958.86 28037.8C1942.66 28043 1923.82 28040.5 1906.4 28037.9L1627.88 27996.6C1597.14 28038.1 1602.03 28087.4 1604.48 28134C1606.94 28180.7 1604.32 28231.3 1562.82 28267.9C1521.32 28304.4 1426.9 28312.9 1392.83 28272.8C1383.08 28261.3 1379.63 28247.8 1376.5 28234.7C1345.73 28105.5 1233.53 27794 1342.53 27677.5C1434.12 27579.7 1772.91 27620.9 1906.99 27631.5Z" fill="#5F9784"/>
<path d="M1737.71 26590.8C1737.12 26562.7 1741.13 26532 1732.55 26506.3C1726.15 26487.2 1716.65 26472.3 1707.2 26456C1700.22 26444.1 1696.03 26435.3 1684.98 26428.5C1673.01 26421.1 1658.3 26414.5 1645.68 26409.1C1628.14 26401.7 1609.91 26406.2 1591.49 26408.4C1580.82 26409.7 1571.66 26406.8 1561.88 26415C1558.81 26417.5 1556.49 26422.3 1553.44 26425C1550.23 26427.9 1545.44 26428.7 1542.5 26431.9C1536.21 26438.8 1536.74 26454.1 1530.59 26459.7C1524.5 26465.2 1513.59 26461.5 1506.47 26461.1C1471.49 26459.4 1433.31 26450.4 1399.68 26471.5C1385.6 26480.3 1368.62 26481.9 1353.66 26485.1C1344.29 26487 1336.17 26492.3 1327.43 26497.4C1320.75 26501.4 1314.14 26505.4 1306.97 26506.9C1296.08 26509.4 1296.64 26505.2 1289.45 26502.5C1271.79 26495.9 1254.06 26483.4 1235.38 26478.9C1215.22 26474.1 1195.6 26472.1 1174.47 26471.1C1150.93 26470 1129.07 26467.9 1107.29 26486.6C1094.38 26497.7 1083.82 26513 1070.62 26524C1057.39 26535 1049.63 26545.3 1039.81 26561.7C1028.91 26579.7 1020.72 26600.1 1012.25 26620.1C1003 26642.1 998.292 26665.8 987.971 26686.9C976.022 26711.4 968.663 26735.5 960.904 26762.3C952.806 26790.4 946.885 26808.5 948.491 26837.2C950.754 26877.8 956.23 26919.1 970.92 26954.1C978.238 26971.5 987.889 26987.1 1000.04 26999.1C1012.88 27011.7 1027.96 27015.4 1041.9 27024.9C1045.1 27027 1048.27 27027.9 1051.3 27027.9C1052.16 27028.2 1053.02 27028.4 1053.89 27028.7C1064.05 27035.1 1075.15 27040.3 1087.23 27045.1C1114.28 27055.9 1140.04 27068 1169 27069.3C1208.5 27071 1245.97 27071.3 1284.16 27048.9C1311.52 27032.9 1337.04 27024.5 1365.78 27015.2C1404.02 27002.8 1445.29 26980.3 1484.52 26977C1492.62 26976.3 1499.63 26977.9 1507.42 26973.1C1524.53 26962.5 1540.55 26943.9 1556.33 26929.8C1593.15 26897 1628.63 26865.9 1653.45 26816.4C1664.82 26793.7 1675.43 26771.1 1688.64 26749.9C1700.25 26731.2 1715.89 26713.6 1724.08 26692C1736.45 26659.4 1738.43 26625 1737.71 26590.8Z" fill="#FFB54E"/>
<path d="M3123.61 22376.1C3084.64 22384.5 3039.18 22390.5 3005.66 22374.3C2983.26 22363.4 2971.48 22345 2960.75 22327.4C2935.34 22285.9 2909.93 22244.4 2884.52 22202.9C2873.08 22184.2 2861.82 22162.1 2876.29 22144.5C2897.34 22118.9 2951.51 22124.2 2991.87 22132.9C3093.31 22154.8 3194.75 22176.7 3296.2 22198.7C3329.28 22205.8 3364.55 22214 3385.56 22233.3C3466.27 22307.6 3183.23 22363.3 3123.61 22376.1Z" fill="#FFD95D"/>
<path d="M1844.81 28814.4C1821.65 28818.2 1798.23 28823.3 1779.52 28833.6C1755.17 28847 1741.53 28867.7 1730.92 28888C1703.5 28940.7 1690.59 28998.1 1704.99 29053.3C1719.4 29108.4 1763.23 29161 1831.09 29190.7C1898.96 29220.5 1991.29 29224.2 2058.66 29193.9C2107.79 29171.8 2139.28 29135.2 2166.47 29099C2204.96 29047.8 2238.86 28987.1 2207.46 28933.6C2195.02 28912.4 2173.36 28894.6 2152.05 28877.2C2055.27 28798.1 1997.12 28789.1 1844.81 28814.4Z" fill="#FFD95D"/>
</svg>
