<svg width="1238" height="9271" viewBox="0 0 1238 9271" fill="none" xmlns="http://www.w3.org/2000/svg">
<path d="M714.164 8498.15C702.601 8516.84 698.323 8538.99 694.254 8560.59C652.695 8781.16 611.137 9001.73 569.579 9222.31C567.359 9234.09 569.339 9251.35 581.326 9251.23C584.849 9251.2 588.09 9249.36 590.975 9247.34C618.754 9227.87 626.544 9190.29 627.433 9156.38C628.323 9122.47 624.84 9087.04 638.46 9055.98C654.043 9020.44 690.432 8994.86 697.506 8956.7C702.935 8927.42 689.563 8896.6 697.253 8867.83C706.731 8832.38 746.196 8807.82 746.637 8771.12C746.932 8746.65 729.041 8722.49 736.913 8699.32C745.822 8673.09 783.525 8662.93 787.532 8635.52C790.772 8613.36 769.273 8590.69 778.64 8570.35C784.323 8558.01 798.895 8552.94 808.995 8543.85C824.918 8529.51 828.316 8503.23 816.562 8485.32C791.131 8446.56 734.421 8465.41 714.164 8498.15Z" fill="#83D398"/>
<path d="M442.633 648.104C442.472 648.455 390.859 608.346 386.629 604.437C364.114 583.651 347.922 553.185 335.493 525.409C309.12 466.469 299.455 399.955 309.446 336.145C323.183 248.408 370.708 184.168 442.985 132.613C511.844 83.4981 612.76 87.0214 687.664 109.176C687.664 109.176 443.059 647.171 442.633 648.104Z" fill="#83D398"/>
<path d="M1183.65 7421.9C1187.24 7420.58 1191.06 7419.15 1193.32 7416.06C1196.85 7411.22 1195.17 7404.48 1193.28 7398.8C1176.93 7349.66 1155.36 7302.27 1129.05 7257.68C1110.27 7303.59 1096.8 7351.66 1088.99 7400.64C1058.73 7376.74 1027.29 7354.34 994.824 7333.54C990.772 7330.95 985.707 7328.31 981.417 7330.48C977.208 7332.62 976.282 7338.11 975.866 7342.82C972.482 7381.08 969.098 7419.35 965.714 7457.62C913.286 7429.58 851.937 7418.54 793.024 7426.55C820.956 7475.32 850.212 7523.33 880.75 7570.51C985.681 7529.43 1078.1 7460.63 1183.65 7421.9Z" fill="#ADDBD0"/>
<path d="M165.229 867.178C142.725 922.763 168.059 993.251 220.71 1021.96C273.362 1050.66 346.2 1033.87 381.126 985.12C486.314 838.281 233.098 699.531 165.229 867.178Z" fill="#FF9293"/>
<path d="M625.35 2889.86C561.666 2859.74 541.692 2779.69 535.16 2709.55C531.265 2667.71 529.978 2623.31 549.662 2586.19C559.603 2567.44 574.325 2551.74 588.87 2536.29C617.369 2506.01 648.27 2474.31 688.722 2464.69C722.134 2456.75 757.626 2465.38 788.448 2480.52C796.451 2484.45 804.697 2489.28 808.694 2497.25C812.877 2505.6 811.49 2515.63 808.866 2524.59C804.364 2539.96 796.486 2554.34 785.948 2566.4C764.771 2590.65 733.222 2605.57 716.963 2633.36C691.376 2677.08 723.01 2742.23 773.196 2749.16C797.532 2752.52 821.917 2744.22 846.475 2743.55C943.663 2740.88 894.54 2864.06 843.672 2895.35C792.991 2926.52 674.885 2913.3 625.35 2889.86Z" fill="#FF9293"/>
<path d="M503.638 2059.59C524.779 2077.18 546.419 2099.68 545.711 2127.18C545.238 2145.54 534.705 2161.93 524.536 2177.23C500.44 2213.48 476.344 2249.73 452.245 2285.98C441.403 2302.3 427.742 2320.31 408.184 2321.43C379.729 2323.07 363.983 2289.69 356.113 2262.3C336.335 2193.44 316.557 2124.58 296.778 2055.72C290.326 2033.26 283.903 2009.02 291.716 1986.97C321.815 1902.21 471.294 2032.67 503.638 2059.59Z" fill="#ADDBD0"/>
<path d="M811.971 8170.02C785.362 8171.07 757.924 8171.72 733.034 8162.25C700.894 8150.02 676.689 8121.84 662.866 8090.35C649.042 8058.87 644.511 8024.12 642.369 7989.8C640.592 7961.33 640.422 7932.24 648.504 7904.88C656.586 7877.52 673.975 7851.78 699.652 7839.34C715.19 7831.82 732.669 7829.54 749.808 7827.46C775.895 7824.3 804.073 7821.74 826.866 7834.82C854.472 7850.66 865.632 7884.31 872.811 7915.32C880.012 7946.43 885.02 7981.02 869.142 8008.72C855.758 8032.07 828.492 8048.69 825.763 8075.46C901.376 8076.32 976.934 8047.48 1032.74 7996.45C1049.88 7980.78 1070.62 7961.57 1092.82 7968.41C1113.28 7974.72 1120.84 7999.46 1123.32 8020.73C1128.15 8062.19 1125.68 8104.84 1115.59 8145.34C1016.16 8156.9 913.354 8166.01 811.971 8170.02Z" fill="#F4BBA6"/>
<path d="M173.637 1493.36C162.493 1452.76 152.29 1411.4 152.047 1369.31C151.803 1327.21 162.369 1283.8 188.892 1251.11C206.584 1229.3 234.318 1212.3 261.798 1218.09C278.45 1221.59 292.317 1232.81 304.887 1244.28C359.611 1294.22 403.915 1357.18 424.121 1428.46C447.5 1510.93 436.388 1670.47 342.252 1711.63C237.433 1757.46 192.2 1560.98 173.637 1493.36Z" fill="#FFD95D"/>
<path d="M426.06 5174.04C410.405 5174.81 391.49 5173.74 382.795 5186.78C374.35 5199.44 381.946 5216.27 389.562 5229.45C401.878 5250.76 416.782 5274.06 440.774 5279.56C453.764 5282.54 467.368 5279.62 480.076 5275.6C574.143 5245.89 640.492 5157.68 669.634 5063.43C672.869 5052.97 675.696 5041.52 671.765 5031.3C671.758 5031.29 671.752 5031.27 671.747 5031.25C666.451 5017.56 612.986 4986.38 598.229 4991.62C574.209 5000.16 578.272 5031.07 568.829 5051.31C541.761 5109.35 496.694 5170.58 426.06 5174.04Z" fill="#FF9293"/>
<path d="M774.158 7031.15C789.273 7034.7 805.154 7037.92 820.167 7033.96C854.187 7024.99 868.31 6985.38 877.164 6951.33C904.619 6845.76 932.071 6740.18 959.526 6634.61C966.447 6607.99 971.163 6574.38 949.258 6557.75C929.489 6542.74 899.963 6552.78 882.015 6569.92C825.37 6624.03 843.648 6718.69 812.429 6790.53C781.941 6794.11 750.437 6772.91 742.269 6743.32C738.287 6728.9 739.253 6713.04 732.516 6699.67C718.924 6672.71 675.526 6670.7 656.304 6693.98C637.081 6717.27 643.672 6755.59 666.926 6774.85C683.757 6788.79 706.324 6793.65 724.67 6805.52C743.019 6817.4 756.846 6842.96 744.112 6860.72C738.122 6869.07 727.937 6873.16 718.204 6876.45C708.031 6879.9 697.574 6882.96 686.839 6883.25C661.22 6883.94 638.148 6869.06 613.795 6861.07C589.443 6853.09 556.714 6855.44 545.861 6878.66C536.747 6898.16 548.553 6921.08 563.026 6937.01C615.437 6994.7 701.602 7014.1 774.158 7031.15Z" fill="#83D398"/>
<path d="M912.358 3120.88C917.532 3117.12 923.343 3113.79 929.724 3113.31C938.77 3112.61 947.148 3117.65 954.815 3122.5C1000.29 3151.27 1046.28 3180.47 1083.14 3219.67C1120 3258.86 1147.34 3309.8 1147.27 3363.61C1147.2 3417.91 1119.77 3468.33 1088.75 3512.91C1071.29 3538.01 1051.87 3562.66 1025.97 3578.93C1000.07 3595.19 966.386 3601.85 938.52 3589.25C910.654 3576.65 892.861 3541.46 905.405 3513.57C911.213 3500.66 922.234 3490.9 933.444 3482.24C964.328 3458.4 1000.01 3438.8 1021.74 3406.39C1043.46 3373.98 1043.9 3322.4 1010.28 3302.6C993.895 3292.95 973.754 3293.13 954.743 3293.56C861.373 3295.68 841.494 3172.43 912.358 3120.88Z" fill="#C19280"/>
<path d="M609.845 4463.95C612.492 4440.43 620.584 4411.85 643.783 4407.18C670.802 4401.75 689.4 4433.66 695.818 4460.46C702.236 4487.26 710.58 4520.24 737.363 4526.74C761.84 4532.68 784.228 4511.09 796.977 4489.37C809.725 4467.64 820.239 4442.06 842.773 4430.81C856.325 4424.04 876.189 4425.8 882.478 4439.58C885.95 4447.19 884.281 4456.04 882.548 4464.22L854.843 4595.06C882.636 4609.5 915.717 4607.2 947.015 4606.05C978.314 4604.9 1012.31 4606.13 1036.82 4625.62C1061.33 4645.12 1067.04 4689.47 1040.12 4705.48C1032.42 4710.06 1023.37 4711.67 1014.53 4713.15C927.87 4727.6 718.874 4780.3 640.743 4729.1C575.087 4686.08 602.754 4526.93 609.845 4463.95Z" fill="#5F9784"/>
<path d="M228.641 6041.1C209.841 6041.38 189.207 6039.49 171.997 6043.52C159.16 6046.53 149.142 6050.99 138.26 6055.43C130.228 6058.71 124.345 6060.68 119.771 6065.87C114.816 6071.49 110.375 6078.4 106.781 6084.33C101.788 6092.57 104.79 6101.13 106.288 6109.78C107.157 6114.8 105.242 6119.1 110.705 6123.7C112.416 6125.13 115.608 6126.22 117.445 6127.66C119.38 6129.16 119.909 6131.42 122.058 6132.79C126.667 6135.75 136.968 6135.5 140.706 6138.39C144.407 6141.25 141.903 6146.38 141.669 6149.72C140.517 6166.15 134.448 6184.09 148.602 6199.88C154.529 6206.5 155.631 6214.48 157.723 6221.51C159.032 6225.9 162.586 6229.72 166.033 6233.83C168.668 6236.97 171.348 6240.07 172.414 6243.44C174.034 6248.55 171.251 6248.29 169.446 6251.67C165.009 6259.96 156.591 6268.29 153.612 6277.06C150.397 6286.54 149.004 6295.75 148.345 6305.68C147.611 6316.74 146.216 6327.01 158.75 6337.24C166.177 6343.3 176.458 6348.26 183.842 6354.46C191.25 6360.68 198.171 6364.32 209.113 6368.94C221.247 6374.06 234.879 6377.9 248.355 6381.88C263.066 6386.23 278.962 6388.44 293.146 6393.29C309.567 6398.9 325.739 6402.36 343.756 6406C362.56 6409.81 374.701 6412.59 393.994 6411.83C421.202 6410.77 448.946 6408.2 472.418 6401.3C484.107 6397.86 494.556 6393.33 502.574 6387.62C511.043 6381.59 513.519 6374.5 519.881 6367.96C521.346 6366.45 521.942 6364.96 521.937 6363.54C522.108 6363.14 522.274 6362.73 522.437 6362.32C526.741 6357.55 530.227 6352.33 533.464 6346.66C540.709 6333.95 548.827 6321.85 549.68 6308.25C550.843 6289.69 551.041 6272.09 536.014 6254.15C525.251 6241.3 519.657 6229.31 513.415 6215.81C505.11 6197.85 489.978 6178.46 487.779 6160.03C487.326 6156.23 488.375 6152.93 485.148 6149.28C478.064 6141.24 465.582 6133.71 456.135 6126.3C434.093 6109.01 413.237 6092.34 380.015 6080.68C364.801 6075.34 349.661 6070.35 335.418 6064.15C322.897 6058.69 311.031 6051.35 296.554 6047.5C274.667 6041.69 251.604 6040.76 228.641 6041.1Z" fill="#FFB54E"/>
<path d="M331.05 5626.23C336.662 5644.53 340.696 5665.88 329.808 5681.63C322.534 5692.15 310.153 5697.69 298.398 5702.73C270.547 5714.66 242.697 5726.6 214.847 5738.54C202.313 5743.91 187.491 5749.2 175.67 5742.4C158.47 5732.51 162.012 5707.07 167.866 5688.11C182.581 5640.46 197.296 5592.8 212.011 5545.15C216.81 5529.61 222.303 5513.04 235.257 5503.17C285.09 5465.26 322.465 5598.22 331.05 5626.23Z" fill="#FFD95D"/>
<path d="M764.473 4056.55C767.05 4067.43 770.457 4078.42 777.363 4087.22C786.348 4098.65 800.204 4105.06 813.87 4110.05C849.208 4122.93 887.718 4128.99 924.717 4122.22C961.716 4115.45 996.992 4094.87 1016.95 4062.99C1036.91 4031.11 1039.39 3987.74 1019.06 3956.09C1004.24 3933.01 979.687 3918.22 955.414 3905.45C921.054 3887.36 880.346 3871.44 844.429 3886.19C830.201 3892.03 818.258 3902.21 806.58 3912.22C753.556 3957.68 747.518 3985 764.473 4056.55Z" fill="#FFD95D"/>
</svg>
