<svg width="1232" height="5802" viewBox="0 0 1232 5802" fill="none" xmlns="http://www.w3.org/2000/svg">
<path d="M689.709 5359.92C672.82 5368.17 661.355 5379.99 650.269 5391.54C537.047 5509.53 423.824 5627.51 310.602 5745.49C304.555 5751.8 300.443 5762.16 311.356 5764.7C314.564 5765.45 318.134 5765.1 321.443 5764.56C353.311 5759.39 373.246 5739.44 385.662 5720.1C398.079 5700.77 407.049 5679.61 430.042 5664.68C456.348 5647.6 498.12 5640.78 517.602 5620.35C532.553 5604.67 530.97 5584.02 547.798 5569.12C568.535 5550.76 612.748 5545.2 625.713 5524.16C634.361 5510.13 626.397 5492.34 641.475 5480.7C658.538 5467.53 696.222 5469.87 709.243 5454.96C719.769 5442.9 708.023 5425.18 723.486 5415.5C732.868 5409.63 747.823 5409.88 760.099 5406.84C779.453 5402.04 791.535 5387.65 787.005 5374.78C777.2 5346.94 719.298 5345.46 689.709 5359.92Z" fill="#83D398"/>
<path d="M355.252 315.024C354.923 315.137 338.263 276.321 337.26 272.833C331.909 254.282 337.097 233.304 343.637 215.041C357.513 176.287 388.756 139.982 433.665 112.273C495.413 74.1742 569.674 60.1276 655.738 61.473C737.733 62.756 813.925 101.792 859.101 140.382C859.101 140.382 356.126 314.722 355.252 315.024Z" fill="#83D398"/>
<path d="M1132.8 4622.06C1136.28 4621.25 1139.98 4620.37 1142.17 4618.47C1145.6 4615.49 1143.97 4611.34 1142.14 4607.84C1126.28 4577.6 1105.37 4548.43 1079.85 4520.99C1061.64 4549.24 1048.58 4578.83 1041 4608.98C1011.67 4594.26 981.178 4580.48 949.692 4567.68C945.763 4566.08 940.851 4564.46 936.691 4565.8C932.609 4567.11 931.712 4570.49 931.309 4573.38C928.027 4596.94 924.745 4620.49 921.463 4644.04C870.624 4626.79 811.133 4619.99 754.005 4624.92C781.09 4654.94 809.46 4684.49 839.074 4713.53C940.826 4688.24 1030.45 4645.9 1132.8 4622.06Z" fill="#ADDBD0"/>
<path d="M121.362 912.149C99.5395 946.36 124.106 989.743 175.162 1007.41C226.22 1025.08 296.852 1014.74 330.72 984.739C432.722 894.363 187.175 808.966 121.362 912.149Z" fill="#FF9293"/>
<path d="M525.47 1830.76C463.714 1812.21 444.346 1762.95 438.012 1719.78C434.235 1694.03 432.986 1666.7 452.074 1643.85C461.714 1632.31 475.99 1622.65 490.094 1613.14C517.731 1594.51 547.695 1574.99 586.922 1569.07C619.322 1564.19 653.739 1569.5 683.628 1578.82C691.389 1581.24 699.385 1584.21 703.26 1589.11C707.317 1594.25 705.971 1600.42 703.428 1605.94C699.062 1615.4 691.422 1624.25 681.203 1631.67C660.668 1646.6 630.075 1655.78 614.308 1672.88C589.496 1699.79 620.171 1739.89 668.838 1744.16C692.436 1746.22 716.083 1741.12 739.897 1740.7C834.142 1739.06 786.506 1814.88 737.18 1834.13C688.033 1853.32 573.504 1845.18 525.47 1830.76Z" fill="#FF9293"/>
<path d="M407.444 1319.74C427.944 1330.57 448.929 1344.42 448.243 1361.34C447.783 1372.65 437.57 1382.73 427.709 1392.15C404.343 1414.46 380.976 1436.77 357.608 1459.08C347.094 1469.12 333.846 1480.21 314.881 1480.9C287.288 1481.91 272.018 1461.36 264.387 1444.5C245.208 1402.12 226.029 1359.74 206.849 1317.36C200.592 1303.54 194.364 1288.62 201.941 1275.05C231.128 1222.88 376.079 1303.17 407.444 1319.74Z" fill="#ADDBD0"/>
<path d="M740.383 5177.16C714.579 5177.8 687.972 5178.2 663.836 5172.38C632.669 5164.85 609.197 5147.5 595.793 5128.13C582.388 5108.75 577.994 5087.36 575.918 5066.24C574.194 5048.71 574.029 5030.81 581.866 5013.97C589.704 4997.13 606.566 4981.29 631.465 4973.64C646.532 4969 663.482 4967.6 680.102 4966.32C705.399 4964.37 732.724 4962.8 754.826 4970.85C781.596 4980.6 792.418 5001.31 799.38 5020.4C806.363 5039.54 811.219 5060.83 795.822 5077.88C782.843 5092.25 756.403 5102.48 753.756 5118.96C827.08 5119.49 900.349 5101.74 954.466 5070.33C971.09 5060.68 991.201 5048.86 1012.73 5053.07C1032.57 5056.96 1039.9 5072.19 1042.3 5085.27C1046.99 5110.79 1044.59 5137.04 1034.81 5161.97C938.389 5169.08 838.695 5174.69 740.383 5177.16Z" fill="#F4BBA6"/>
<path d="M141.609 586.023C154.648 561.47 168.855 536.851 191.473 515.281C214.091 493.711 246.111 475.19 285.156 467.627C311.202 462.582 342.716 463.445 361.678 475.851C373.168 483.368 378.242 493.862 382.134 504.04C399.078 548.351 400.584 595.726 378.206 639.055C352.314 689.188 256.922 766.793 158.914 755.424C49.7872 742.763 119.89 626.922 141.609 586.023Z" fill="#FFD95D"/>
<path d="M332.216 3236.61C317.035 3237.09 298.694 3236.43 290.262 3244.45C282.073 3252.25 289.439 3262.6 296.824 3270.71C308.766 3283.83 323.22 3298.17 346.485 3301.56C359.082 3303.39 372.273 3301.59 384.596 3299.12C475.814 3280.83 540.153 3226.54 568.413 3168.53C571.55 3162.1 574.292 3155.05 570.479 3148.76C570.473 3148.75 570.467 3148.74 570.462 3148.73C565.326 3140.3 513.481 3121.11 499.171 3124.34C475.878 3129.59 479.818 3148.61 470.661 3161.08C444.413 3196.79 400.711 3234.48 332.216 3236.61Z" fill="#FF9293"/>
<path d="M669.769 4379.62C684.427 4381.8 699.826 4383.78 714.385 4381.35C747.374 4375.82 761.07 4351.44 769.655 4330.49C796.278 4265.51 822.899 4200.53 849.523 4135.56C856.234 4119.17 860.808 4098.48 839.565 4088.25C820.396 4079.01 791.764 4085.19 774.359 4095.74C719.43 4129.04 737.155 4187.3 706.881 4231.52C677.316 4233.73 646.767 4220.68 638.846 4202.47C634.984 4193.59 635.921 4183.82 629.388 4175.6C616.209 4159 574.124 4157.77 555.485 4172.1C536.844 4186.43 543.235 4210.02 565.785 4221.87C582.107 4230.45 603.989 4233.44 621.781 4240.75C639.574 4248.06 652.982 4263.79 640.633 4274.72C634.825 4279.86 624.949 4282.38 615.51 4284.4C605.645 4286.52 595.504 4288.41 585.095 4288.59C560.251 4289.01 537.878 4279.85 514.264 4274.94C490.649 4270.02 458.912 4271.47 448.387 4285.76C439.548 4297.76 450.997 4311.87 465.032 4321.68C515.856 4357.18 599.411 4369.12 669.769 4379.62Z" fill="#83D398"/>
<path d="M916.65 1958.32C921.667 1956 927.303 1953.95 933.491 1953.65C942.263 1953.23 950.387 1956.33 957.822 1959.32C1001.91 1977.02 1046.52 1994.99 1082.26 2019.12C1118.01 2043.24 1144.51 2074.59 1144.44 2107.71C1144.38 2141.13 1117.78 2172.16 1087.7 2199.6C1070.76 2215.05 1051.94 2230.22 1026.82 2240.23C1001.71 2250.24 969.042 2254.34 942.02 2246.59C914.998 2238.83 897.744 2217.18 909.908 2200.01C915.54 2192.06 926.227 2186.05 937.098 2180.73C967.047 2166.05 1001.65 2153.99 1022.72 2134.04C1043.79 2114.09 1044.21 2082.35 1011.61 2070.16C995.717 2064.22 976.187 2064.33 957.751 2064.6C867.21 2065.9 847.933 1990.04 916.65 1958.32Z" fill="#C19280"/>
<path d="M618.451 2794.74C621.018 2780.27 628.865 2762.68 651.361 2759.81C677.562 2756.46 695.596 2776.1 701.82 2792.6C708.043 2809.09 716.135 2829.39 742.107 2833.39C765.842 2837.05 787.552 2823.76 799.915 2810.39C812.277 2797.02 822.472 2781.27 844.324 2774.35C857.466 2770.18 876.728 2771.27 882.826 2779.75C886.193 2784.43 884.575 2789.88 882.894 2794.91L856.028 2875.44C882.979 2884.33 915.058 2882.91 945.409 2882.2C975.759 2881.49 1008.72 2882.25 1032.49 2894.25C1056.26 2906.25 1061.8 2933.55 1035.7 2943.4C1028.23 2946.22 1019.45 2947.21 1010.88 2948.12C926.843 2957.02 724.178 2989.45 648.413 2957.94C584.746 2931.46 611.575 2833.51 618.451 2794.74Z" fill="#5F9784"/>
<path d="M140.776 3770.26C122.545 3770.43 102.536 3769.27 85.8477 3771.75C73.3994 3773.61 63.6843 3776.35 53.1323 3779.08C45.3431 3781.1 39.6383 3782.31 35.2035 3785.51C30.3984 3788.97 26.0919 3793.22 22.6066 3796.87C17.7646 3801.94 20.6761 3807.21 22.129 3812.54C22.9708 3815.62 21.114 3818.27 26.4119 3821.1C28.0711 3821.99 31.1665 3822.66 32.9476 3823.54C34.8242 3824.47 35.337 3825.85 37.4207 3826.7C41.8902 3828.52 51.8797 3828.37 55.504 3830.15C59.0933 3831.91 56.6647 3835.06 56.4381 3837.12C55.3212 3847.23 49.4358 3858.27 63.1614 3867.99C68.9089 3872.06 69.9766 3876.97 72.006 3881.3C73.2752 3884.01 76.7212 3886.36 80.064 3888.88C82.619 3890.82 85.2178 3892.73 86.2514 3894.8C87.823 3897.95 85.1236 3897.79 83.374 3899.86C79.0713 3904.97 70.9078 3910.09 68.0194 3915.5C64.9017 3921.32 63.5512 3927 62.9119 3933.11C62.2003 3939.91 60.8472 3946.23 73.002 3952.53C80.2038 3956.26 90.1728 3959.32 97.3339 3963.13C104.517 3966.96 111.229 3969.2 121.84 3972.04C133.605 3975.19 146.824 3977.56 159.893 3980.01C174.158 3982.68 189.573 3984.04 203.327 3987.03C219.251 3990.48 234.932 3992.61 252.404 3994.85C270.638 3997.19 282.412 3998.91 301.121 3998.44C327.504 3997.79 354.408 3996.2 377.169 3991.96C388.504 3989.84 398.637 3987.05 406.412 3983.54C414.624 3979.83 417.025 3975.47 423.194 3971.44C424.615 3970.51 425.193 3969.59 425.188 3968.72C425.354 3968.47 425.515 3968.22 425.673 3967.97C429.847 3965.03 433.227 3961.82 436.366 3958.33C443.391 3950.51 451.264 3943.06 452.091 3934.69C453.219 3923.27 453.41 3912.44 438.839 3901.39C428.402 3893.48 422.977 3886.1 416.925 3877.8C408.871 3866.74 394.197 3854.81 392.065 3843.46C391.625 3841.12 392.643 3839.1 389.514 3836.84C382.644 3831.9 370.54 3827.27 361.379 3822.7C340.005 3812.06 319.78 3801.8 287.564 3794.62C272.812 3791.34 258.13 3788.27 244.319 3784.45C232.177 3781.09 220.67 3776.57 206.632 3774.2C185.407 3770.63 163.043 3770.05 140.776 3770.26Z" fill="#FFB54E"/>
<path d="M240.084 3514.92C245.526 3526.19 249.438 3539.33 238.879 3549.02C231.826 3555.5 219.82 3558.9 208.42 3562C181.414 3569.35 154.407 3576.7 127.4 3584.04C115.246 3587.35 100.873 3590.61 89.41 3586.42C72.7307 3580.34 76.166 3564.68 81.8425 3553.01C96.1118 3523.68 110.381 3494.35 124.65 3465.02C129.304 3455.45 134.631 3445.26 147.192 3439.18C195.515 3415.85 231.758 3497.68 240.084 3514.92Z" fill="#FFD95D"/>
<path d="M844.033 2556.68C846.533 2563.38 849.836 2570.15 856.533 2575.56C865.246 2582.6 878.682 2586.54 891.934 2589.61C926.202 2597.54 963.545 2601.27 999.424 2597.11C1035.3 2592.94 1069.51 2580.27 1088.87 2560.65C1108.22 2541.03 1110.63 2514.33 1090.91 2494.85C1076.54 2480.65 1052.73 2471.55 1029.19 2463.69C995.872 2452.56 956.397 2442.76 921.568 2451.83C907.771 2455.43 896.189 2461.69 884.865 2467.85C833.448 2495.83 827.592 2512.65 844.033 2556.68Z" fill="#FFD95D"/>
</svg>