<svg width="4232" height="21984" viewBox="0 0 4232 21984" fill="none" xmlns="http://www.w3.org/2000/svg">
<path d="M14.9326 11723.6C64.2026 11627 151.488 11550.4 253.696 11514.1C283.144 11503.7 314.479 11496.4 345.53 11499.9C376.581 11503.4 407.426 11519.1 423.346 11546C439.266 11572.9 436.515 11611.2 412.844 11631.6C390.228 11651.1 357.043 11650.2 327.256 11648.2C312.562 11647.2 297.867 11646.2 283.173 11645.2C274.425 11644.7 265.419 11644.1 257.093 11646.8C239.106 11652.8 229.203 11672.6 227.06 11691.4C224.916 11710.3 228.545 11729.3 227.957 11748.2C226.368 11799.3 190.861 11847.7 142.575 11864.6C40.0227 11900.4 -32.7003 11817 14.9326 11723.6Z" fill="#F89BAE"/>
<path d="M48.2529 12488.1C105.549 12585.5 254.172 12622.2 339.199 12547.8C404.258 12490.8 416.075 12395.7 423.549 12309.5C380.534 12297.9 338.921 12330.6 308.726 12363.4C278.528 12396.1 245.913 12434.1 201.473 12437.1C169.863 12390.7 204.075 12327.6 244.871 12289.1C285.67 12250.6 337.126 12214.7 346.657 12159.4C348.183 12150.5 348.378 12140.9 343.771 12133.2C335.047 12118.6 314.452 12117.8 297.563 12119.8C114.737 12140.8 -69.8833 12287.2 48.2529 12488.1Z" fill="#ADDBD0"/>
<path d="M376.996 10777.1C401.086 10775.7 427.204 10789.4 433.772 10812.6C440.13 10835.1 428.068 10861.9 441.193 10881.3C450.052 10894.3 467.052 10898.5 482.496 10901.6C511.615 10907.6 540.734 10913.6 569.853 10919.6C585.092 10922.7 601.074 10926.2 612.777 10936.5C639.619 10960 629.912 11004 612.508 11035.2C594.239 11067.9 569.874 11097.2 541.039 11121.1C516.528 11141.4 482.31 11158.3 453.908 11143.9C415.017 11124.2 417.262 11062.2 380.484 11038.8C329.132 11006.1 208.748 11049.3 217.448 10941.9C222.08 10884.7 320.143 10780.4 376.996 10777.1Z" fill="#83D398"/>
<path d="M428.407 10449.4C427.667 10475.4 429.55 10506.4 451.864 10519.6C462.733 10526.1 476.023 10526.5 488.662 10526.7C579.484 10528.3 670.306 10529.9 761.128 10531.5C798.511 10425.9 793.569 10310.7 788.168 10198.8C787.78 10190.8 787.254 10182.3 782.801 10175.7C776.075 10165.6 762.753 10162.7 750.758 10160.8C667.067 10148 582.216 10145.1 497.599 10142.2C481.52 10141.7 464.448 10141.4 450.568 10149.5C405.164 10176.3 429.88 10397.8 428.407 10449.4Z" fill="#88C4D2"/>
<path d="M639.553 13723.1C624.845 13665.1 620.913 13597.7 658.502 13551.1C663.044 13545.5 669.019 13539.9 676.253 13540C686.604 13540.2 692.596 13551.4 697.246 13560.6C734.352 13634.5 827.221 13675.1 906.614 13652.2C967.43 13634.7 1020.89 13584.9 1083.92 13590.6C1095.16 13633.5 1070.54 13678.2 1039.15 13709.6C1007.77 13741.1 968.985 13764.8 940.217 13798.7C897.415 13849.1 842.063 13991.1 750.783 13946.7C691.746 13918 653.908 13779.8 639.553 13723.1Z" fill="#88C4D2"/>
<path d="M402.641 12842.5C383.841 12842.8 363.207 12840.9 345.997 12844.9C333.16 12848 323.142 12852.4 312.26 12856.9C304.228 12860.1 298.345 12862.1 293.771 12867.3C288.816 12872.9 284.375 12879.8 280.781 12885.8C275.788 12894 278.79 12902.6 280.288 12911.2C281.157 12916.2 279.242 12920.5 284.705 12925.1C286.416 12926.6 289.608 12927.7 291.445 12929.1C293.38 12930.6 293.909 12932.8 296.058 12934.2C300.667 12937.2 310.968 12936.9 314.706 12939.8C318.407 12942.7 315.903 12947.8 315.669 12951.2C314.517 12967.6 308.448 12985.5 322.602 13001.3C328.529 13007.9 329.631 13015.9 331.723 13022.9C333.032 13027.3 336.586 13031.2 340.033 13035.3C342.668 13038.4 345.348 13041.5 346.414 13044.9C348.034 13050 345.251 13049.7 343.446 13053.1C339.009 13061.4 330.591 13069.7 327.612 13078.5C324.397 13088 323.004 13097.2 322.345 13107.1C321.611 13118.2 320.216 13128.4 332.75 13138.7C340.177 13144.7 350.458 13149.7 357.842 13155.9C365.25 13162.1 372.171 13165.7 383.113 13170.4C395.247 13175.5 408.879 13179.3 422.355 13183.3C437.066 13187.7 452.962 13189.9 467.146 13194.7C483.567 13200.3 499.739 13203.8 517.756 13207.4C536.56 13211.2 548.701 13214 567.994 13213.3C595.202 13212.2 622.946 13209.6 646.418 13202.7C658.107 13199.3 668.556 13194.8 676.574 13189C685.043 13183 687.519 13175.9 693.881 13169.4C695.346 13167.9 695.942 13166.4 695.937 13165C696.108 13164.6 696.274 13164.2 696.437 13163.8C700.741 13159 704.227 13153.8 707.464 13148.1C714.709 13135.4 722.827 13123.3 723.68 13109.7C724.843 13091.1 725.041 13073.5 710.014 13055.6C699.251 13042.7 693.657 13030.7 687.415 13017.2C679.11 12999.3 663.978 12979.9 661.779 12961.5C661.326 12957.7 662.375 12954.4 659.148 12950.7C652.064 12942.7 639.582 12935.1 630.135 12927.7C608.093 12910.4 587.237 12893.8 554.015 12882.1C538.801 12876.8 523.661 12871.8 509.418 12865.6C496.897 12860.1 485.031 12852.8 470.554 12848.9C448.667 12843.1 425.604 12842.2 402.641 12842.5Z" fill="#FFB54E"/>
<path d="M926.725 9055.68C914.878 9075.6 910.494 9099.2 906.325 9122.22C863.744 9357.26 821.162 9592.31 778.581 9827.35C776.306 9839.91 778.336 9858.3 790.617 9858.18C794.227 9858.14 797.548 9856.18 800.504 9854.03C828.966 9833.28 836.948 9793.24 837.86 9757.1C838.771 9720.97 835.203 9683.21 849.158 9650.11C865.124 9612.24 902.408 9584.98 909.657 9544.32C915.22 9513.12 901.518 9480.28 909.398 9449.62C919.109 9411.84 959.545 9385.67 959.997 9346.57C960.3 9320.48 941.968 9294.75 950.034 9270.05C959.162 9242.1 997.793 9231.27 1001.9 9202.07C1005.22 9178.45 983.19 9154.3 992.788 9132.62C998.611 9119.47 1013.54 9114.07 1023.89 9104.38C1040.2 9089.11 1043.69 9061.1 1031.64 9042.01C1005.59 9000.71 947.481 9020.8 926.725 9055.68Z" fill="#83D398"/>
<path d="M648.511 690.624C648.346 690.998 595.463 648.258 591.128 644.092C568.06 621.943 551.469 589.478 538.734 559.879C511.712 497.073 501.809 426.195 512.046 358.198C526.121 264.705 574.815 196.251 648.871 141.313C719.426 88.9761 822.824 92.7307 899.573 116.338C899.573 116.338 648.947 689.629 648.511 690.624Z" fill="#83D398"/>
<path d="M1407.76 7908.83C1411.44 7907.42 1415.36 7905.89 1417.67 7902.6C1421.29 7897.45 1419.57 7890.27 1417.63 7884.21C1400.88 7831.85 1378.78 7781.35 1351.82 7733.83C1332.58 7782.75 1318.78 7833.98 1310.77 7886.17C1279.77 7860.7 1247.56 7836.83 1214.29 7814.67C1210.14 7811.91 1204.95 7809.09 1200.56 7811.41C1196.24 7813.69 1195.29 7819.54 1194.87 7824.55C1191.4 7865.33 1187.93 7906.11 1184.47 7946.89C1130.75 7917.01 1067.89 7905.25 1007.53 7913.78C1036.14 7965.75 1066.12 8016.91 1097.41 8067.19C1204.92 8023.41 1299.62 7950.1 1407.76 7908.83Z" fill="#ADDBD0"/>
<path d="M364.28 924.071C341.223 983.303 367.18 1058.42 421.127 1089C475.075 1119.59 549.705 1101.7 585.491 1049.75C693.268 893.278 433.82 745.425 364.28 924.071Z" fill="#FF9293"/>
<path d="M835.726 3079.46C770.474 3047.36 750.009 2962.06 743.316 2887.31C739.325 2842.73 738.006 2795.41 758.175 2755.86C768.361 2735.88 783.445 2719.15 798.347 2702.69C827.548 2670.43 859.209 2636.64 900.657 2626.39C934.891 2617.93 971.256 2627.12 1002.84 2643.26C1011.04 2647.45 1019.49 2652.59 1023.58 2661.09C1027.87 2669.98 1026.45 2680.67 1023.76 2690.22C1019.15 2706.6 1011.07 2721.92 1000.28 2734.77C978.578 2760.61 946.253 2776.51 929.593 2806.12C903.376 2852.72 935.789 2922.13 987.21 2929.52C1012.14 2933.1 1037.13 2924.26 1062.29 2923.54C1161.87 2920.7 1111.54 3051.96 1059.42 3085.3C1007.49 3118.52 886.479 3104.43 835.726 3079.46Z" fill="#FF9293"/>
<path d="M711.018 2194.71C732.679 2213.46 754.851 2237.43 754.126 2266.73C753.641 2286.3 742.849 2303.77 732.43 2320.07C707.741 2358.7 683.052 2397.33 658.36 2435.96C647.251 2453.34 633.254 2472.54 613.214 2473.73C584.059 2475.48 567.925 2439.91 559.862 2410.72C539.597 2337.34 519.332 2263.96 499.066 2190.59C492.455 2166.66 485.874 2140.83 493.88 2117.33C524.719 2027 677.878 2166.03 711.018 2194.71Z" fill="#ADDBD0"/>
<path d="M1026.94 8706.03C999.674 8707.14 971.561 8707.84 946.059 8697.75C913.128 8684.72 888.327 8654.69 874.164 8621.14C860 8587.58 855.357 8550.56 853.163 8513.99C851.342 8483.64 851.167 8452.65 859.449 8423.49C867.73 8394.33 885.546 8366.91 911.855 8353.66C927.776 8345.64 945.685 8343.21 963.246 8341C989.975 8337.62 1018.85 8334.9 1042.2 8348.84C1070.49 8365.72 1081.92 8401.58 1089.28 8434.62C1096.65 8467.77 1101.79 8504.63 1085.52 8534.15C1071.8 8559.03 1043.87 8576.73 1041.07 8605.27C1118.54 8606.18 1195.96 8575.45 1253.14 8521.07C1270.71 8504.37 1291.96 8483.9 1314.7 8491.19C1335.66 8497.92 1343.41 8524.28 1345.95 8546.95C1350.9 8591.13 1348.36 8636.57 1338.03 8679.73C1236.16 8692.05 1130.82 8701.76 1026.94 8706.03Z" fill="#F4BBA6"/>
<path d="M331.911 1651.46C320.493 1608.2 310.038 1564.13 309.789 1519.27C309.539 1474.41 320.365 1428.16 347.54 1393.32C365.669 1370.08 394.085 1351.97 422.241 1358.13C439.303 1361.87 453.511 1373.82 466.391 1386.05C522.462 1439.26 567.856 1506.35 588.559 1582.31C612.513 1670.19 601.128 1840.19 504.675 1884.05C397.277 1932.89 350.93 1723.52 331.911 1651.46Z" fill="#FFD95D"/>
<path d="M631.531 5513.5C615.49 5514.32 596.11 5513.17 587.201 5527.07C578.548 5540.56 586.332 5558.49 594.135 5572.53C606.753 5595.24 622.025 5620.08 646.607 5625.94C659.917 5629.11 673.855 5626 686.876 5621.72C783.259 5590.06 851.24 5496.05 881.1 5395.63C884.414 5384.48 887.311 5372.27 883.283 5361.39C883.276 5361.37 883.27 5361.35 883.265 5361.34C877.838 5346.75 823.058 5313.52 807.938 5319.11C783.326 5328.2 787.489 5361.14 777.814 5382.71C750.08 5444.55 703.903 5509.8 631.531 5513.5Z" fill="#FF9293"/>
<path d="M988.196 7492.44C1003.68 7496.23 1019.95 7499.66 1035.34 7495.44C1070.19 7485.88 1084.67 7443.67 1093.74 7407.38C1121.87 7294.88 1150 7182.38 1178.13 7069.89C1185.22 7041.52 1190.05 7005.7 1167.61 6987.98C1147.35 6971.99 1117.1 6982.68 1098.71 7000.95C1040.67 7058.61 1059.4 7159.48 1027.41 7236.04C996.17 7239.85 963.891 7217.26 955.522 7185.73C951.442 7170.36 952.432 7153.46 945.529 7139.22C931.603 7110.48 887.136 7108.34 867.442 7133.15C847.745 7157.97 854.499 7198.8 878.324 7219.33C895.57 7234.18 918.692 7239.36 937.49 7252.01C956.291 7264.66 970.458 7291.91 957.411 7310.83C951.273 7319.73 940.838 7324.09 930.864 7327.6C920.441 7331.26 909.727 7334.53 898.728 7334.84C872.478 7335.57 848.838 7319.72 823.887 7311.21C798.935 7302.7 765.401 7305.21 754.28 7329.95C744.941 7350.73 757.038 7375.15 771.868 7392.13C825.569 7453.6 913.855 7474.27 988.196 7492.44Z" fill="#83D398"/>
<path d="M1129.8 3325.63C1135.1 3321.62 1141.05 3318.08 1147.59 3317.56C1156.86 3316.82 1165.44 3322.19 1173.3 3327.36C1219.89 3358.02 1267.02 3389.13 1304.79 3430.9C1342.55 3472.67 1370.56 3526.95 1370.49 3584.28C1370.41 3642.15 1342.32 3695.88 1310.53 3743.38C1292.64 3770.12 1272.74 3796.4 1246.21 3813.73C1219.67 3831.06 1185.15 3838.15 1156.6 3824.73C1128.05 3811.3 1109.82 3773.81 1122.67 3744.09C1128.62 3730.32 1139.92 3719.93 1151.4 3710.7C1183.05 3685.3 1219.61 3664.41 1241.87 3629.87C1264.13 3595.34 1264.58 3540.38 1230.13 3519.28C1213.34 3508.99 1192.7 3509.18 1173.22 3509.64C1077.56 3511.9 1057.19 3380.56 1129.8 3325.63Z" fill="#C19280"/>
<path d="M819.838 4756.81C822.551 4731.76 830.842 4701.3 854.612 4696.32C882.296 4690.53 901.351 4724.53 907.927 4753.09C914.503 4781.66 923.053 4816.8 950.495 4823.73C975.574 4830.06 998.513 4807.05 1011.58 4783.9C1024.64 4760.75 1035.41 4733.49 1058.5 4721.5C1072.38 4714.28 1092.74 4716.16 1099.18 4730.85C1102.74 4738.96 1101.03 4748.39 1099.25 4757.11L1070.87 4896.53C1099.34 4911.91 1133.24 4909.47 1165.31 4908.24C1197.38 4907.01 1232.2 4908.32 1257.32 4929.09C1282.44 4949.87 1288.29 4997.13 1260.71 5014.19C1252.82 5019.07 1243.54 5020.79 1234.49 5022.36C1145.69 5037.76 931.551 5093.92 851.497 5039.36C784.225 4993.51 812.573 4823.93 819.838 4756.81Z" fill="#5F9784"/>
<path d="M429.252 6437.43C409.99 6437.73 388.848 6435.72 371.215 6440.02C358.062 6443.22 347.797 6447.98 336.647 6452.71C328.417 6456.2 322.389 6458.3 317.703 6463.83C312.626 6469.82 308.076 6477.18 304.393 6483.5C299.277 6492.28 302.354 6501.41 303.889 6510.63C304.778 6515.97 302.816 6520.55 308.414 6525.45C310.167 6526.98 313.438 6528.15 315.32 6529.67C317.303 6531.28 317.844 6533.68 320.046 6535.15C324.769 6538.3 335.324 6538.03 339.153 6541.11C342.946 6544.16 340.38 6549.62 340.14 6553.19C338.96 6570.69 332.742 6589.81 347.244 6606.64C353.317 6613.69 354.445 6622.19 356.59 6629.68C357.931 6634.37 361.572 6638.43 365.104 6642.81C367.803 6646.15 370.549 6649.46 371.641 6653.05C373.302 6658.5 370.45 6658.22 368.601 6661.82C364.055 6670.66 355.429 6679.53 352.377 6688.88C349.083 6698.97 347.656 6708.8 346.981 6719.37C346.229 6731.16 344.799 6742.1 357.642 6753C365.251 6759.46 375.785 6764.75 383.351 6771.36C390.941 6777.98 398.033 6781.86 409.244 6786.78C421.676 6792.24 435.644 6796.34 449.452 6800.58C464.525 6805.2 480.812 6807.56 495.346 6812.73C512.171 6818.71 528.74 6822.39 547.2 6826.28C566.467 6830.33 578.907 6833.3 598.675 6832.49C626.553 6831.36 654.979 6828.62 679.029 6821.26C691.006 6817.6 701.712 6812.77 709.927 6806.69C718.605 6800.26 721.141 6792.71 727.66 6785.74C729.162 6784.13 729.772 6782.54 729.767 6781.03C729.943 6780.6 730.112 6780.17 730.28 6779.73C734.69 6774.65 738.261 6769.09 741.577 6763.04C749.001 6749.5 757.319 6736.61 758.193 6722.11C759.384 6702.34 759.587 6683.58 744.19 6664.47C733.162 6650.77 727.431 6638 721.035 6623.61C712.526 6604.47 697.021 6583.81 694.769 6564.17C694.304 6560.12 695.379 6556.61 692.073 6552.71C684.814 6544.15 672.025 6536.12 662.345 6528.23C639.761 6509.8 618.391 6492.03 584.352 6479.61C568.764 6473.92 553.251 6468.61 538.658 6462C525.828 6456.18 513.67 6448.36 498.837 6444.26C476.411 6438.06 452.781 6437.07 429.252 6437.43Z" fill="#FFB54E"/>
<path d="M534.182 5995.34C539.932 6014.85 544.066 6037.6 532.909 6054.38C525.456 6065.6 512.771 6071.49 500.726 6076.86C472.19 6089.58 443.654 6102.3 415.119 6115.02C402.277 6120.75 387.09 6126.38 374.978 6119.14C357.354 6108.6 360.984 6081.49 366.982 6061.29C382.059 6010.51 397.136 5959.73 412.213 5908.95C417.13 5892.39 422.759 5874.74 436.031 5864.22C487.09 5823.81 525.385 5965.5 534.182 5995.34Z" fill="#FFD95D"/>
<path d="M978.271 4322.68C980.912 4334.28 984.403 4346 991.479 4355.36C1000.68 4367.55 1014.88 4374.38 1028.88 4379.69C1065.09 4393.42 1104.55 4399.88 1142.46 4392.67C1180.37 4385.46 1216.51 4363.52 1236.97 4329.55C1257.42 4295.58 1259.96 4249.36 1239.13 4215.64C1223.94 4191.04 1198.78 4175.28 1173.91 4161.67C1138.71 4142.4 1097 4125.43 1060.2 4141.15C1045.62 4147.38 1033.38 4158.22 1021.41 4168.89C967.087 4217.33 960.899 4246.44 978.271 4322.68Z" fill="#FFD95D"/>
<path d="M1446.32 14658.3C1433.25 14640.9 1414.51 14629.1 1396.21 14617.7C1209.26 14500.9 1022.3 14384.1 835.351 14267.4C825.366 14261.1 808.937 14256.9 804.912 14268.2C803.73 14271.5 804.29 14275.1 805.142 14278.6C813.34 14311.4 844.949 14332 875.583 14344.8C906.218 14357.6 939.743 14366.8 963.4 14390.6C990.464 14417.7 1001.27 14460.8 1033.65 14480.8C1058.5 14496.3 1091.22 14494.6 1114.83 14512C1143.91 14533.4 1152.73 14579 1186.07 14592.3C1208.3 14601.3 1236.5 14593 1254.93 14608.6C1275.8 14626.2 1272.09 14665 1295.72 14678.5C1314.82 14689.3 1342.9 14677.2 1358.24 14693.2C1367.55 14702.8 1367.15 14718.3 1371.97 14730.9C1379.57 14750.9 1402.38 14763.3 1422.77 14758.7C1466.89 14748.6 1469.22 14688.8 1446.32 14658.3Z" fill="#83D398"/>
<path d="M2152.15 20717.4C2151.97 20717.1 2240.07 20685.3 2247.89 20683C2289.46 20670.9 2334.2 20669.9 2372.74 20671.4C2454.51 20674.5 2527.41 20698.3 2578.78 20740.6C2649.41 20798.6 2665.01 20878.8 2644.61 20977.6C2625.18 21071.7 2524.52 21171.5 2431.13 21235.8C2431.13 21235.8 2152.63 20718.3 2152.15 20717.4Z" fill="#83D398"/>
<path d="M1064.84 16550.6C1066.13 16554.2 1067.52 16558.1 1070.53 16560.3C1075.25 16563.9 1081.83 16562.2 1087.37 16560.3C1135.29 16543.9 1181.51 16522.4 1225 16496C1180.23 16477.3 1133.34 16463.8 1085.57 16456C1108.88 16425.7 1130.73 16394.3 1151.01 16361.8C1153.54 16357.8 1156.12 16352.7 1153.99 16348.4C1151.91 16344.2 1146.55 16343.3 1141.97 16342.9C1104.65 16339.5 1067.33 16336.1 1030 16332.7C1057.35 16280.3 1068.11 16218.9 1060.31 16160C1012.75 16188 965.922 16217.2 919.907 16247.8C959.976 16352.7 1027.07 16445.1 1064.84 16550.6Z" fill="#ADDBD0"/>
<path d="M3350.56 21283.2C3296.35 21260.7 3227.61 21286.1 3199.61 21338.7C3171.62 21391.4 3187.99 21464.2 3235.54 21499.1C3378.74 21604.3 3514.06 21351.1 3350.56 21283.2Z" fill="#FF9293"/>
<path d="M1686.09 20341.3C1715.48 20277.7 1793.54 20257.7 1861.95 20251.2C1902.75 20247.3 1946.06 20246 1982.26 20265.7C2000.54 20275.6 2015.85 20290.3 2030.92 20304.9C2060.45 20333.4 2091.37 20364.3 2100.74 20404.7C2108.49 20438.1 2100.08 20473.6 2085.31 20504.4C2081.48 20512.5 2076.77 20520.7 2068.99 20524.7C2060.85 20528.9 2051.07 20527.5 2042.33 20524.9C2027.34 20520.4 2013.32 20512.5 2001.55 20501.9C1977.91 20480.8 1963.35 20449.2 1936.25 20433C1893.61 20407.4 1830.08 20439 1823.32 20489.2C1820.04 20513.5 1828.13 20537.9 1828.79 20562.5C1831.39 20659.7 1711.26 20610.5 1680.75 20559.7C1650.34 20509 1663.24 20390.9 1686.09 20341.3Z" fill="#FF9293"/>
<path d="M3031.66 21326.1C3014.5 21347.3 2992.56 21368.9 2965.75 21368.2C2947.83 21367.7 2931.85 21357.2 2916.93 21347C2881.58 21322.9 2846.22 21298.8 2810.87 21274.7C2794.96 21263.9 2777.39 21250.2 2776.3 21230.7C2774.7 21202.2 2807.25 21186.5 2833.97 21178.6C2901.12 21158.8 2968.28 21139 3035.44 21119.3C3057.33 21112.8 3080.97 21106.4 3102.48 21114.2C3185.15 21144.3 3057.91 21293.8 3031.66 21326.1Z" fill="#ADDBD0"/>
<path d="M1132.23 15530.6C1131.21 15504 1130.57 15476.5 1139.81 15451.6C1151.73 15419.5 1179.22 15395.3 1209.92 15381.5C1240.63 15367.7 1274.51 15363.1 1307.98 15361C1335.76 15359.2 1364.12 15359 1390.81 15367.1C1417.49 15375.2 1442.59 15392.6 1454.72 15418.3C1462.06 15433.8 1464.28 15451.3 1466.31 15468.4C1469.4 15494.5 1471.89 15522.7 1459.13 15545.5C1443.68 15573.1 1410.87 15584.2 1380.62 15591.4C1350.29 15598.6 1316.55 15603.6 1289.54 15587.8C1266.76 15574.4 1250.56 15547.1 1224.45 15544.4C1223.61 15620 1251.74 15695.5 1301.5 15751.4C1316.79 15768.5 1335.52 15789.2 1328.85 15811.4C1322.7 15831.9 1298.56 15839.5 1277.82 15841.9C1237.39 15846.8 1195.8 15844.3 1156.3 15834.2C1145.02 15734.8 1136.14 15632 1132.23 15530.6Z" fill="#F4BBA6"/>
<path d="M4024.26 21650.3C4063.16 21663.7 4102.17 21678.4 4136.35 21701.7C4170.53 21725 4199.88 21758 4211.86 21798.3C4219.85 21825.2 4218.49 21857.7 4198.83 21877.2C4186.92 21889.1 4170.29 21894.3 4154.16 21898.3C4083.95 21915.8 4008.88 21917.3 3940.22 21894.3C3860.78 21867.6 3737.82 21769.2 3755.83 21668.1C3775.89 21555.6 3959.45 21627.9 4024.26 21650.3Z" fill="#FFD95D"/>
<path d="M614.418 17140.9C610.953 17156 607.814 17171.8 611.676 17186.9C620.427 17220.9 659.059 17235 692.267 17243.9C795.226 17271.3 898.187 17298.8 1001.15 17326.2C1027.1 17333.1 1059.89 17337.9 1076.11 17316C1090.75 17296.2 1080.95 17266.7 1064.24 17248.7C1011.47 17192.1 919.147 17210.3 849.081 17179.1C845.59 17148.6 866.264 17117.1 895.123 17109C909.194 17105 924.661 17105.9 937.695 17099.2C963.991 17085.6 965.949 17042.2 943.241 17023C920.533 17003.8 883.158 17010.4 864.376 17033.6C850.781 17050.4 846.04 17073 834.463 17091.4C822.884 17109.7 797.95 17123.5 780.63 17110.8C772.485 17104.8 768.5 17094.6 765.286 17084.9C761.93 17074.7 758.94 17064.3 758.657 17053.5C757.985 17027.9 772.499 17004.8 780.286 16980.5C788.073 16956.1 785.778 16923.4 763.136 16912.6C744.119 16903.4 721.766 16915.2 706.228 16929.7C649.965 16982.1 631.051 17068.3 614.418 17140.9Z" fill="#83D398"/>
<path d="M1560.21 19844.4C1563.89 19849.5 1567.13 19855.3 1567.6 19861.7C1568.28 19870.8 1563.36 19879.1 1558.63 19886.8C1530.58 19932.3 1502.1 19978.3 1463.87 20015.1C1425.65 20052 1375.97 20079.3 1323.5 20079.3C1270.54 20079.2 1221.37 20051.8 1177.89 20020.8C1153.41 20003.3 1129.37 19983.9 1113.51 19958C1097.64 19932.1 1091.15 19898.4 1103.44 19870.5C1115.73 19842.7 1150.04 19824.9 1177.24 19837.4C1189.84 19843.2 1199.36 19854.2 1207.8 19865.4C1231.05 19896.3 1250.17 19932 1281.77 19953.7C1313.38 19975.5 1363.68 19975.9 1382.99 19942.3C1392.4 19925.9 1392.23 19905.8 1391.81 19886.7C1389.74 19793.4 1509.95 19773.5 1560.21 19844.4Z" fill="#C19280"/>
<path d="M873.642 18537.8C896.575 18540.5 924.452 18548.6 929.003 18571.8C934.304 18598.8 903.184 18617.4 877.045 18623.8C850.906 18630.2 818.743 18638.6 812.403 18665.4C806.609 18689.8 827.667 18712.2 848.853 18725C870.038 18737.7 894.991 18748.2 905.965 18770.8C912.564 18784.3 910.844 18804.2 897.405 18810.5C889.985 18813.9 881.354 18812.3 873.374 18810.5L745.773 18782.8C731.692 18810.6 733.933 18843.7 735.057 18875C736.182 18906.3 734.981 18940.3 715.97 18964.8C696.957 18989.3 653.703 18995 638.091 18968.1C633.625 18960.4 632.047 18951.4 630.61 18942.5C616.513 18855.9 565.115 18646.9 615.049 18568.7C657.011 18503.1 812.217 18530.8 873.642 18537.8Z" fill="#5F9784"/>
<path d="M796.089 17839.6C795.819 17820.8 797.659 17800.2 793.727 17783C790.794 17770.2 786.442 17760.1 782.112 17749.3C778.917 17741.2 776.994 17735.3 771.934 17730.8C766.45 17725.8 759.713 17721.4 753.929 17717.8C745.892 17712.8 737.541 17715.8 729.103 17717.3C724.215 17718.2 720.019 17716.2 715.536 17721.7C714.132 17723.4 713.069 17726.6 711.673 17728.4C710.203 17730.4 708.005 17730.9 706.662 17733.1C703.78 17737.7 704.019 17748 701.203 17751.7C698.413 17755.4 693.418 17752.9 690.153 17752.7C674.129 17751.5 656.637 17745.4 641.232 17759.6C634.782 17765.5 627 17766.6 620.145 17768.7C615.856 17770 612.133 17773.6 608.13 17777C605.069 17779.7 602.041 17782.3 598.758 17783.4C593.767 17785 594.024 17782.2 590.732 17780.4C582.639 17776 574.52 17767.6 565.962 17764.6C556.725 17761.4 547.738 17760 538.055 17759.3C527.273 17758.6 517.256 17757.2 507.278 17769.7C501.366 17777.2 496.526 17787.5 490.481 17794.8C484.417 17802.2 480.865 17809.2 476.362 17820.1C471.37 17832.2 467.618 17845.9 463.738 17859.4C459.503 17874.1 457.344 17890 452.616 17904.1C447.141 17920.6 443.77 17936.7 440.216 17954.8C436.505 17973.6 433.793 17985.7 434.529 18005C435.566 18032.2 438.074 18059.9 444.804 18083.4C448.157 18095.1 452.578 18105.6 458.146 18113.6C464.028 18122 470.936 18124.5 477.32 18130.9C478.79 18132.3 480.242 18132.9 481.627 18132.9C482.02 18133.1 482.417 18133.3 482.814 18133.4C487.47 18137.7 492.555 18141.2 498.089 18144.5C510.481 18151.7 522.281 18159.8 535.549 18160.7C553.645 18161.8 570.811 18162 588.309 18147C600.841 18136.2 612.533 18130.7 625.7 18124.4C643.217 18116.1 662.127 18101 680.098 18098.8C683.808 18098.3 687.022 18099.4 690.589 18096.1C698.426 18089.1 705.768 18076.6 712.996 18067.1C729.862 18045.1 746.119 18024.2 757.491 17991C762.7 17975.8 767.559 17960.7 773.61 17946.4C778.93 17933.9 786.094 17922 789.844 17907.6C795.514 17885.7 796.421 17862.6 796.089 17839.6Z" fill="#FFB54E"/>
<path d="M1431.01 15012C1413.15 15017.7 1392.33 15021.7 1376.97 15010.8C1366.71 15003.5 1361.31 14991.2 1356.4 14979.4C1344.76 14951.5 1333.12 14923.7 1321.47 14895.8C1316.23 14883.3 1311.08 14868.5 1317.7 14856.7C1327.35 14839.5 1352.17 14843 1370.65 14848.9C1417.13 14863.6 1463.6 14878.3 1510.07 14893C1525.23 14897.8 1541.39 14903.3 1551.01 14916.3C1587.99 14966.1 1458.32 15003.5 1431.01 15012Z" fill="#FFD95D"/>
<path d="M845.155 19331.5C834.547 19334 823.819 19337.5 815.246 19344.4C804.091 19353.3 797.84 19367.2 792.981 19380.9C780.418 19416.2 774.503 19454.7 781.104 19491.7C787.705 19528.7 807.781 19564 838.873 19584C869.964 19603.9 912.264 19606.4 943.127 19586.1C965.634 19571.2 980.059 19546.7 992.517 19522.4C1010.15 19488.1 1025.68 19447.3 1011.3 19411.4C1005.6 19397.2 995.673 19385.3 985.91 19373.6C941.576 19320.6 914.934 19314.5 845.155 19331.5Z" fill="#FFD95D"/>
</svg>
